/* XPM */
static char *result[] = {
/* columns rows colors chars-per-pixel */
"64 64 75 1 ",
"  c #000000",
". c #090705",
"X c #0B0A06",
"o c #0F0D08",
"O c #110E09",
"+ c #15110B",
"@ c #1A150D",
"# c #1D190F",
"$ c #1E1A10",
"% c #211B0F",
"& c #231D12",
"* c #262014",
"= c #2B2316",
"- c #2D2618",
"; c #2F2919",
": c #302717",
"> c #302817",
", c #302718",
"< c #332B1B",
"1 c #392F1D",
"2 c #3B311E",
"3 c #3C3321",
"4 c #41351F",
"5 c #423621",
"6 c #453A24",
"7 c #4A3D25",
"8 c #463D28",
"9 c #4A3F29",
"0 c #4D4026",
"q c #4D412A",
"w c #514127",
"e c #53452B",
"r c #59472C",
"t c #56492D",
"y c #5B4B2E",
"u c #564A31",
"i c #5B4D31",
"p c #5E5134",
"a c #624E2E",
"s c #67522F",
"d c #614F31",
"f c #635334",
"g c #695635",
"h c #6B5936",
"j c #655639",
"k c #6A5738",
"l c #66593B",
"z c #6C5B3A",
"x c #755D37",
"c c #715E3A",
"v c #6F603E",
"b c #74623E",
"n c #79643E",
"m c #6C5E41",
"M c #6F6040",
"N c #756442",
"B c #7A6641",
"V c #7C6A44",
"C c #716649",
"Z c #7C6C49",
"A c #826E45",
"S c #877247",
"D c #85724A",
"F c #8A754B",
"G c #8D794D",
"H c #927C4E",
"J c #8C7A52",
"K c #927E52",
"L c #958154",
"P c #998354",
"I c #9B8759",
"U c #9F8A5A",
"Y c #A18A58",
"T c #A7905B",
"R c None",
/* pixels */
"RRRRRRRRRRRRRRRRRRRRRRRRRRRRRRRRRRRRRRRRRRRRRRRRRRRRRRRRRRRRRRRR",
"RRRRRRRRRRRRRRRRRRRRRRRRRRRRRRRRRRRRRRRRRRRRRRRRRRRRRRRRRRRRRRRR",
"RRRRRRRRRRRRRRRRRRRRRRRRRRRRRRRRRRRRRRRRRRRRRRRRRRRRRRRRRRRRRRRR",
"RRRRRRRRRRRRRRRRRRRRRRRRRRRRRRRRRRRRRRRRRRRRRRRRRRRRRRRRRRRRRRRR",
"RRRRRRRRRRRRRRRRRRRRRRRRRRRRRRRRRRRRRRRRRRRRRRRRRRRRRRRRRRRRRRRR",
"RRRRRRRRRRRRRRRRRRRRRRRRRRRRRRR41:&461RRRRRRRRRRRRRRRRRRRRRRRRRR",
"RRRRRRRRRRRRRRRRRRRRRRRRR6576,7aw64:&1776RRRRRRRRRRRRRRRRRRRRRRR",
"RRRRRRRRRRRRRRRRRRR6ggii6>4w2&777411:%<47>*>1RRRRRRRRRRRRRRRRRRR",
"RRRRRRRRRRRRRRR13*3VPFSA9&,==&26,&5Bl36*574777ydyRRRRRRRRRRRRRRR",
"RRRRRRRRRRRRRR-9q-;3vGC32gZbN5eb67xFzjD33655=2wxgeRRRRRRRRRRRRRR",
"RRRRRRRRRRRRR;*733Cp>1;fFJJFflZbizcBvBF3#:77-@<yfeRRRRRRRRRRRRRR",
"RRRRRRRRRRR16y2epppp=>zLTKKAjYFlmdzNmuq&eflhi=65rr7RRRRRRRRRRRRR",
"RRRRRRRRRR47cVqVLJLC1lNJJJJqzi51<<5em396AAzNblJcr56RRRRRRRRRRRRR",
"RRRRRRRRRR2rzquJUIL3-333<>3&1-=-&=&=-qfiZKMZAlFZ52<RRRRRRRRRRRRR",
"RRRRRRRRRRwZCl5lZq3-1331;9l&*<::&&<=&*1e339JZipucf0RRRRRRRRRRRRR",
"RRRRRRRRRRfJKLu=;;=@<1<=196<&*&&+#=&#$$-=&=<qFNufe6tRRRRRRRRRRRR",
"RRRRRRRRRRwre9>-<-&@<1*<3>-&+$&=&@&&@#@#@$&&-mBizfufRRRRRRRRRRRR",
"RRRRRRRRRR2<%=<e911@@@@@&@X..&&&@O+#@@OXX+&==9mZLVjfRRRRRRRRRRRR",
"RRRRRRRRRRf7%#5jq1<@@#@o     .    .OX    +2<+3AZYFj95RRRRRRRRRRR",
"RRRRRRRRRRfq&eiq8@$;13<.                 $1>@-mtIPieeRRRRRRRRRRR",
"RRRRRRRRR=-=3uu8=$$-*=#                  .++O#==zZ6p62RRRRRRRRRR",
"RRRRRRRRR14eNFIl@$&<1=X                  .@=&&-21<22=7eRRRRRRRRR",
"RRRRRRRR27ezFLDM$o$31+.                  .=&&i6u-pZy<eyRRRRRRRRR",
"RRRRRRR->=1yvlMq&o$1$.                    &&=ltzuGFz6>1RRRRRRRRR",
"RRRRRRR7we,&;pq;-O++.                     $&&33;2FLnt=6RRRRRRRRR",
"RRRRRRRydFD6pJ3-&@*+                      o&@3de2nLDfegRRRRRRRRR",
"RRRRRRR7dAFCpJ3=$*;O                      .o+&jZ00zg35gyRRRRRRRR",
"RRRRRRR7fAAJ38*+$;;X                        +&=53=31<276RRRRRRRR",
"RRRRRR7w5MAJ3&$o@-$                         O32@#$ejer<eRRRRRRRR",
"RRRRRR6au16e;++O$*O                         .30#;iqeyy42RRRRRRRR",
"RRRRRR7sde<1e1&#$@O                         .@&*lviqb73;RRRRRRRR",
"RRRRRR7rgA76Zl<&&@$X                         O#&lVvqZfefRRRRRRRR",
"RRRRRR7axntzBz*@&$&O                         X+o6GZ5DDjlyRRRRRRR",
"RRRRRR17if*ib3+++O+.                          .o$iq>ije1>RRRRRRR",
"RRRRRR7ady15p&@+O+.                            o+$&$<3;=1RRRRRRR",
"RRRRRRwdhyy53+@++O                             +$*+OiC<3f6RRRRRR",
"RRRRRR2776f6+++Oo.                             +<q$+3u36tRRRRRRR",
"RRRRRR&&<=5=o+++.                             X+qu1q;3cb3RRRRRRR",
"RRRRRR@#uz9=+@@@X                             .$q=;38NDDlRRRRRRR",
"RRRRRR&9KKj9@@@@X                             X++1ju3mBlt1RRRRRR",
"RRRRRy5qBHf<&#@@O                             +++pli3<323>RRRRRR",
"RRRR7d6=uu1#&&&@@.                            O+=2gi<yggp>RRRRRR",
"RRRR9u6&&16$&*=&@o                            X+3-313NbNi;RRRRRR",
"RRRR5t<&;153@&==&+                            X+26&&0Nvpi1RRRRRR",
"RRRR5d<ey55*+&-&@+                     .  . . o+;02+&120q00RRRRR",
"RRRR,59BVi1@@&&@+O...  . .... ...X.. XXXXXXXX.++-e3@+*>22tfRRRRR",
"RRR<166cBe&@+@+o+X.XXXXo.X..XXoXXoOoXXoOXo++o.+O+$#+@*>=*yjRRRRR",
"RRR<246dw1=@X@@+o+++Ooo+++++oX+@#@++O+#@&##@@@++$$++2bbp*tuRRRRR",
"RRR=w15lw5=+&<&@@-=*%%*%%#%@++==*******%***=>>#*22*&tvnS50iRRRRR",
"RRR3e<=569<@573O%24<==*==**%=><<<-*=>=*:%*22262>22*;fcvAi;8RRRRR",
"RRR15i63iB9&113+=1<1222=::1:3;1==<<66*>422227222<;=0hhhbz>RRRRRR",
"RRR9zBeqSF6=<<<<r7677ww144445<75050ry0wrwr2ry5706>;icchbb2RRRRRR",
"RRRfZn9NZz6&<16rzh79yaw4rraw7wlf60gguqghs6yvcy7yy72fvvcbnqRRRRRR",
"RRRjzydcdd9@&7ccBlgnxa474wrsxsbrsbVlt0ppegASbgbbh22vccvbZuRRRRRR",
"RRRRR-fldiiuginScgAAzyhnsssxxa4gAVVDvvSbfgSSfVFBgetvcccbZRRRRRRR",
"RRRRRR7eyue6523eBVBznDFHnSnsna4gcjjzqq06427gSbVgSVLnyasfvRRRRRRR",
"RRRRRRRRRR51*-<<7577ebAi67eBf1377635<<<=<2220406fVbpRRRRRRRRRRRR",
"RRRRRRRRRRRRRRRRR522RR75RRRe5R13<=;RRR*RR22<422<R70RRRRRRRRRRRRR",
"RRRRRRRRRRRRRRRRRRRRRRRRRRRRRRRRRRRRRRRRRRRRRRRRRRRRRRRRRRRRRRRR",
"RRRRRRRRRRRRRRRRRRRRRRRRRRRRRRRRRRRRRRRRRRRRRRRRRRRRRRRRRRRRRRRR",
"RRRRRRRRRRRRRRRRRRRRRRRRRRRRRRRRRRRRRRRRRRRRRRRRRRRRRRRRRRRRRRRR",
"RRRRRRRRRRRRRRRRRRRRRRRRRRRRRRRRRRRRRRRRRRRRRRRRRRRRRRRRRRRRRRRR",
"RRRRRRRRRRRRRRRRRRRRRRRRRRRRRRRRRRRRRRRRRRRRRRRRRRRRRRRRRRRRRRRR",
"RRRRRRRRRRRRRRRRRRRRRRRRRRRRRRRRRRRRRRRRRRRRRRRRRRRRRRRRRRRRRRRR"
};
