/* XPM */
static char *result[] = {
/* columns rows colors chars-per-pixel */
"64 64 184 2 ",
"   c #644525",
".  c #6D4A27",
"X  c #674A2A",
"o  c #6C4D2C",
"O  c #754323",
"+  c #7C4525",
"@  c #734B26",
"#  c #7D4A27",
"$  c #734E2A",
"%  c #7B4C2A",
"&  c #7E5127",
"*  c #75522D",
"=  c #7A542D",
"-  c #7A592F",
";  c #704D30",
":  c #6D5533",
">  c #6D5836",
",  c #745433",
"<  c #7B5631",
"1  c #755B35",
"2  c #7C5A34",
"3  c #765C3B",
"4  c #7C5C39",
"5  c #7D613B",
"6  c #7E6642",
"7  c #824726",
"8  c #824926",
"9  c #884927",
"0  c #854D2A",
"q  c #8A4E2B",
"w  c #81552C",
"e  c #8B532D",
"r  c #84592E",
"t  c #8B5A2E",
"y  c #92552E",
"u  c #92592F",
"i  c #8D5731",
"p  c #845C33",
"a  c #8C5B32",
"s  c #815F3A",
"d  c #895938",
"f  c #935630",
"g  c #935C33",
"h  c #9A5D32",
"j  c #915E39",
"k  c #856335",
"l  c #8B6135",
"z  c #84643B",
"x  c #896339",
"c  c #83683A",
"v  c #8B693B",
"b  c #946234",
"n  c #9C6336",
"m  c #956935",
"M  c #9D6B36",
"N  c #95633A",
"B  c #9B6539",
"V  c #946B3B",
"C  c #9D6A3A",
"Z  c #93743F",
"A  c #9C723E",
"S  c #A5622F",
"D  c #A26535",
"F  c #A46A36",
"G  c #AC6D34",
"H  c #A16638",
"J  c #A36C3A",
"K  c #AA6E3A",
"L  c #B06C33",
"P  c #AF7235",
"I  c #A5723D",
"U  c #AB743D",
"Y  c #A7793F",
"T  c #AE793E",
"R  c #B17437",
"E  c #B67A37",
"W  c #B2763B",
"Q  c #B37B3D",
"!  c #B97D3C",
"~  c #836440",
"^  c #816942",
"/  c #8A6D43",
"(  c #9C6F40",
")  c #957243",
"_  c #9E7542",
"`  c #947847",
"'  c #917549",
"]  c #957A4E",
"[  c #9A7A4B",
"{  c #8A7650",
"}  c #A36F40",
"|  c #A47441",
" . c #A97541",
".. c #A47942",
"X. c #AD7B42",
"o. c #A17749",
"O. c #A47D4A",
"+. c #AB7F4B",
"@. c #B27D42",
"#. c #B07F4E",
"$. c #B6813E",
"%. c #BA813E",
"&. c #BE883F",
"*. c #C0863F",
"=. c #9F834B",
"-. c #AB8046",
";. c #AC844B",
":. c #A3814B",
">. c #B58245",
",. c #BA8543",
"<. c #B58947",
"1. c #BD8A45",
"2. c #B3854A",
"3. c #B98748",
"4. c #B5894B",
"5. c #BC8C4A",
"6. c #BE914C",
"7. c #A68851",
"8. c #AA8851",
"9. c #B18750",
"0. c #B48C53",
"q. c #BA8F51",
"w. c #BC9353",
"e. c #BB9459",
"r. c #BA9A5B",
"t. c #B89955",
"y. c #B09764",
"u. c #BF9D62",
"i. c #C18C45",
"p. c #C18E49",
"a. c #C39147",
"s. c #C3944C",
"d. c #C8974B",
"f. c #C5994E",
"g. c #CA9C4E",
"h. c #C29651",
"j. c #C59A53",
"k. c #C99D52",
"l. c #C39C59",
"z. c #CBA254",
"x. c #C6A35B",
"c. c #CBA45A",
"v. c #CEA95C",
"b. c #D1A755",
"n. c #D1A856",
"m. c #D0A759",
"M. c #D1AC5D",
"N. c #D5B25E",
"B. c #C5A361",
"V. c #CDAC62",
"C. c #C5AB6D",
"Z. c #CAAF6B",
"A. c #D1AE61",
"S. c #CDB06F",
"D. c #D4B365",
"F. c #D7B965",
"G. c #D9B965",
"H. c #D4B56A",
"J. c #D8B76B",
"K. c #D6B96C",
"L. c #DABB6C",
"P. c #C8AF75",
"I. c #C3AC72",
"U. c #C7B076",
"Y. c #CEB170",
"T. c #D3B573",
"R. c #D5BA74",
"E. c #DABE72",
"W. c #D2BC7B",
"Q. c #DFC36F",
"!. c #DEC374",
"~. c #DDC47B",
"^. c #E0C77C",
"/. c #E2CA7D",
"(. c #DAC583",
"). c #DFCA83",
"_. c #E3CC83",
"`. c #E2CE8B",
"'. c #E4D18B",
"]. c #E7D490",
"[. c #ECDC9A",
"{. c #EDDDA0",
"}. c #F0E0A4",
"|. c None",
/* pixels */
"|.|.|.|.|.|.|.|.|.|.|.|.|.|.|.|.|.|.|.|.|.|.|.|.|.|.|.|.|.|.|.|.|.|.|.|.|.|.|.|.|.|.|.|.|.|.|.|.|.|.|.|.|.|.|.|.|.|.|.|.|.|.|.|.",
"|.|.|.|.|.|.|.|.|.|.|.|.|.|.|.|.|.|.|.|.|.|.|.|.|.|.|.|.|.|.|.|.|.|.|.|.|.|.|.|.|.|.|.|.|.|.|.|.|.|.|.|.|.|.|.|.|.|.|.|.|.|.|.|.",
"|.|.|.|.|.|.|.|.|.|.|.|.|.|.|.|.|.|.|.|.|.|.|.|.|.|.|.Z k v c 4 z 2 , .     X |.|.|.|.|.|.|.|.|.|.|.|.|.|.|.|.|.|.|.|.|.|.|.|.|.",
"|.|.|.|.|.|.|.|.|.|.|.|.|.|.|.|.|.|.|.|.|.|.|.|.= v ` ) :.r.C.C.U.U.C.r...V z 5 1 6 { |.|.|.|.|.|.|.|.|.|.|.|.|.|.|.|.|.|.|.|.|.",
"|.|.|.|.|.|.|.|.|.|.|.|.|.|.|.|.|.|.|.|.|.|.* - v ;.c.V.A.D.M.k.j.c.^._.V.R.(.S.;.v 4 5 / |.|.|.|.|.|.|.|.|.|.|.|.|.|.|.|.|.|.|.",
"|.|.|.|.|.|.|.|.|.|.|.|.|.|.|.|.|.|.|.|.X @ m 6.N.D.m.d.i.1.,.%.1.i.m.Q.k.V./._.^.J.e.N , , |.|.|.|.|.|.|.|.|.|.|.|.|.|.|.|.|.|.",
"|.|.|.|.|.|.|.|.|.|.|.|.|.|.|.|.|.|.* . w -.z.N.f.i.,.! %.%.%.,.i.i.m.L.,.1.z.c.J.E.Q.V...p . o |.|.|.|.|.|.|.|.|.|.|.|.|.|.|.|.",
"|.|.|.|.|.|.|.|.|.|.|.|.|.|.|.|.|.X * m 1.g.d.1.1.i.i.1.s.5.s.f.k.c.E.T.X.1.g.g.k.b.A.c.z.h.V * , |.|.|.|.|.|.|.|.|.|.|.|.|.|.|.",
"|.|.|.|.|.|.|.|.|.|.|.|.|.|.|.|.  * I s.*.*.&.1.d.k.g.f.j.w.2.X.+.0.e.#.H >.d.g.k.k.h.k.m.M.d.I < ; |.|.|.|.|.|.|.|.|.|.|.|.|.|.",
"|.|.|.|.|.|.|.|.|.|.|.|.|.|.|.  * $.s.a.%.&.i.g.b.d.@.} J J } J } X.} H H K @.5.s.U J f.m.A.m.d.I < < |.|.|.|.|.|.|.|.|.|.|.|.|.",
"|.|.|.|.|.|.|.|.|.|.|.|.|.|.X = >.d.&.%.*.a.g.s.U g f H J  .>.2.@.3.@.@.@.W  .H n e I p.d.s.k.d.d. .s 4 |.|.|.|.|.|.|.|.|.|.|.|.",
"|.|.|.|.|.|.|.|.|.|.|.|.|.o * $.d.%.E %.s.z.1.n a J >.3.,.p.s.s.h.k.f.k.k.f.d.i.K g J 5.p.1.i.d.f.6.| 2 3 |.|.|.|.|.|.|.|.|.|.|.",
"|.|.|.|.|.|.|.|.|.|.|.|.o * M 1.Q P E *.k.4.N J 5.k.V.h.s.s.s.a.d.k.k.k.j.k.j.k.s. .J X.5.i.1.i.f.f.1.A , 3 |.|.|.|.|.|.|.|.|.|.",
"|.|.|.|.|.|.|.|.|.|.|.|.X p 6.&.G R 1.g.4.N X.c.v.l.5.@.>.>.1.,.,.3.3.@.>.,.,.j.l.>.@.| X.5.p.i.1.f.j.1.d : |.|.|.|.|.|.|.|.|.|.",
"|.|.|.|.|.|.|.|.|.|.|.X . >.g.<.Q %.d.h.B  .z.l.3.@.X. .T X.>.>.@.Q >.@.>.>.1.6.2.>.5.@.J @.p.p.,.s.z.f.X.2 , |.|.|.|.|.|.|.|.|.",
"|.|.|.|.|.|.|.|.|.|.|.  M f.1.$.@.p.d.C } l.l.@. . . .I T T Q U I U Q Q @.,.s.>.X.,.3.>.X.J @.h.1.,.j.V.k.| , |.|.|.|.|.|.|.|.|.",
"|.|.|.|.|.|.|.|.|.|.o $ s.g.,.%.i.g.U g 6.j.2.I | X.I I I U I K F J n J J >.3.| @.3.1.3.@.K H 3.f.,.,.c.A.h.N 4 |.|.|.|.|.|.|.|.",
"|.|.|.|.|.|.|.|.|.|.o m z.f.i.i.g.>.e U f.<.X.X.| U F D n J @.5.5.2.I J J J C J @.>.>.1.>.@.J | f.p.%.,.k.A.1.d |.|.|.|.|.|.|.|.",
"|.|.|.|.|.|.|.|.|.|.$ >.z.s.g.b.k.a b ,.@. .X.I J D e g J >.h.f.1.@.@.s.j.X.M n J W >.@.@.p.>.J  .d.,.%.1.M.M.V z |.|.|.|.|.|.|.",
"|.|.|.|.|.|.|.|.|.* l v.n.s.g.5.n e >.>.K F J J D g B 2.5.3.5.p.,.@.Q 1.j.z.j.X.n n  .@.@.5.h. .D 1.a.,.,.k.A.V ~ |.|.|.|.|.|.|.",
"|.|.|.|.|.|.|.|.|.$ ..G.z.d.d.U O ..p. .J J J I g h 2.3.>.3.5.5.@.>.1.5.g.g.j.s.@.B } X.4.3.h.5.B C p.i.,.k.j.I z |.|.|.|.|.|.|.",
"|.|.|.|.|.|.|.|.|.* <.v.,.R &.K + 4.3.K K K I J i H X.U 5.h.5.>.,.5.h.k.g.6.X.X.3.J C X.@.3.s.j.5.g I 5.f.5.1.>.p |.|.|.|.|.|.|.",
"|.|.|.|.|.|.|.|.|.= 5.g.L S E F q @.@.X.U J J h i | @.5.l.c.5.5.h.w.j.0.n e e e  .J n U @.3.3.c.D.+.h 3.2.2.c.1.p |.|.|.|.|.|.|.",
"|.|.|.|.|.|.|.|.@ w a.a.L G E F g @.@.@.W J n i h @.>.4.k.l.5.6.c.j. .e 8 0 e 0 N C D I @.>.4.5.H.e.g D U k.D.1.p |.|.|.|.|.|.|.",
"|.|.|.|.|.|.|.|.& u 1.a.P R %.I j @. .R G D y e K I g e H >.s.3.p.>.g 8 0 e e e u n n G @.>.@.3.k.e.f D i.k.A.p.l 2 |.|.|.|.|.|.",
"|.|.|.|.|.|.|.|.& m 6.f.T E 1.X.} 3.R K D y 9 g K y 8 y 0 g X.5.2.J 0 0 e q q q e g n I Q @.W 2.l.h.F R E 3.c.j.V 2 |.|.|.|.|.|.",
"|.|.|.|.|.|.|.|.r M s.k.E $.1.X.} p. .K S 9 q h u + 8 g e 0 g >.2.B q 9 q 0 q 9 j n D U Q ,.Q @.h.h.H W E i.A.k.| - |.|.|.|.|.|.",
"|.|.|.|.|.|.|.|.t I s.k.E %.i.X.} p.@.K D y y h 9 + 7 0 0 0 # C U n i e e e 9 e I I J U Q @.@.U 3.h.D W E 3.A.B.A * |.|.|.|.|.|.",
"|.|.|.|.|.|.|.|.l F 6.g.%.! 1.>. .p.,.U K y q h 8 + 7 # 8 8 O g K D y e e 0 8 n 5. . .U Q Q @.U +.s.J R ! i.k.k.C = |.|.|.|.|.|.",
"|.|.|.|.|.|.|.|.t F 5.f.%.! &.>. .p.1.Q W n q g u 0 7 # 9 # 0 N h D h q 8 7 0 2.2.J X.U Q Q Q U J >.J L ! ! d.k.C = |.|.|.|.|.|.",
"|.|.|.|.|.|.|.|.t n 1.f.&.%.,.5. .>.3.Q ! K e e F F n n j g g g 9 q h f e e X.q.n h U U  .Q Q $.U | n I 1.@.h.k.N - |.|.|.|.|.|.",
"|.|.|.|.|.|.|.|.t m &.g.a.&.1.s.X.2.5.@.%.W g 8 n K  .@.X.J i 8 9 9 q H I 2.c.2.h J W U U Q Q >.>.| e P 1.i.k.k.l |.|.|.|.|.|.|.",
"|.|.|.|.|.|.|.|.a l $.g.g.&.&.z.;.-.s.>.%.@.C 0 f J I |  .N e f h n B U s.z.w.J K  .I W  .Q Q @.h...0 I ! Q k.w.p |.|.|.|.|.|.|.",
"|.|.|.|.|.|.|.|.|.t P s.f.1.6.n.+.I 6.1.>.@.M 7 0 n J J H h N X.>.5.5.3.3. .n N K  .K  . .W W ,.k.| + F E Q k.6.r |.|.|.|.|.|.|.",
"|.|.|.|.|.|.|.|.|.r F 1.g.a.g.g.w.C 5.3.6.<.t 0 g g e r e i i a g j a e e 0 e n  .X.K @.Q Q Q i.j.M O u @.1.z.X.2 |.|.|.|.|.|.|.",
"|.|.|.|.|.|.|.|.|.< m &.b.a.*.b.V...U 2.c.w.a t  .C # 0 0 0 # # 0 0 e e e i j B K  .K @.@.Q @.k.s.b u F F T 4.l 2 |.|.|.|.|.|.|.",
"|.|.|.|.|.|.|.|.|.* l ,.z.s.d.g.M.;.N X.v.w.N e B i e I n q + e n g h f i X.j.X.D K R W Q Q 5.k.@.n U $.1.X.j * |.|.|.|.|.|.|.|.",
"|.|.|.|.|.|.|.|.|.|.< @.g.g.f.g.m.l.d | z.w.U g g e N <.Q y 8 D 3.H n f g W d.5.h D K  .Q ,.z.p.F I Q U c.V.( $ |.|.|.|.|.|.|.|.",
"|.|.|.|.|.|.|.|.|.|.; J s.M.z.n.z.w.N C s.z.6.X.I n n U I g 8 n >.} F f 9 y n J h F W W @.d.k.@.D T Q P 3.c.) = |.|.|.|.|.|.|.|.",
"|.|.|.|.|.|.|.|.|.|.o l 5.M.M.z.z.j.2.B X.g.z.j.l.q.2.| J n y y H B W F y q y h F U  .! p.k.>.J J W W U 5.w.) |.|.|.|.|.|.|.|.|.",
"|.|.|.|.|.|.|.|.|.|.|.2 X.j.c.n.n.d.s.-.I @.j.M.L.T.V.6.3.>.F g j | 5.@.K K  .@.3.4.@.d.k.5.J K >.$.E %.6.I A |.|.|.|.|.|.|.|.|.",
"|.|.|.|.|.|.|.|.|.|.|., V <.j.M.z.a.s.f.4.J X.k.A.v.c.j.s.s.6.<.>.s.h.>.,.@.>.3.5.5.h.k.5.X.X.5.1.1.5.j.Q m |.|.|.|.|.|.|.|.|.|.",
"|.|.|.|.|.|.|.|.|.|.|.|.4 V j.n.s.s.i.s.l.3.} >.5.r.D.z.f.6.f.s.s.f.s.@.3.,.3.3.5.h.p. .F X.6.6.1.5.c.s.V m |.|.|.|.|.|.|.|.|.|.",
"|.|.|.|.|.|.|.|.|.|.|.|.|.4 0.N.g.a.a.a.z.c.l.9.;.e.V.v.z.j.j.g.s.j.0.X.h.p.d.h.s.>.J J 2.l.f.5.s.v.c.T V |.|.|.|.|.|.|.|.|.|.|.",
"|.|.|.|.|.|.|.|.|.|.|.|.|.1 c B.N.z.f.f.f.c.D.B.e.0.q.l.k.z.c.V.D.H.e.@.k.l.h.h.X.J U 6.x.k.s.j.v.v.<.A |.|.|.|.|.|.|.|.|.|.|.|.",
"|.|.|.|.|.|.|.|.|.|.|.|.|.|.5 =.V.N.n.z.d.k.v.v.V.B.w.4.X.2.5.q.r.e. . .5.@.}  .@.5.g.z.j.h.l.D.A.4.A |.|.|.|.|.|.|.|.|.|.|.|.|.",
"|.|.|.|.|.|.|.|.|.|.|.|.|.|.|.5 ` x.F.N.z.z.c.v.F.K.V.Z.9.j d N C B g H  . .9.h.V.M.z.k.z.x.D.v.<.A |.|.|.|.|.|.|.|.|.|.|.|.|.|.",
"|.|.|.|.|.|.|.|.|.|.|.|.|.|.|.|.> c t.F.N.v.M.N.A.D.D.E.T.o.d +.r.B.B.B.Z.T.E.H.A.c.v.V.D.D.x.X.Z |.|.|.|.|.|.|.|.|.|.|.|.|.|.|.",
"|.|.|.|.|.|.|.|.|.|.|.|.|.|.|.|.|.: z t.H.Q.!.F.D.D.D.E.).u.0.R.~.~.!.^.!.E.L.H.A.A.D.H.v.w.V x |.|.|.|.|.|.|.|.|.|.|.|.|.|.|.|.",
"|.|.|.|.|.|.|.|.|.|.|.|.|.|.|.|.|.|.> 5 =.Z.~._./._._.'._.P.T.`.'._.!.E.L.F.H.L.L.G.m.6...V v |.|.|.|.|.|.|.|.|.|.|.|.|.|.|.|.|.",
"|.|.|.|.|.|.|.|.|.|.|.|.|.|.|.|.|.|.|.|.> c 7.Z.'.{.}.[.`.T.(.[.]._./.!.L.L.L.D.k.>.A l < v |.|.|.|.|.|.|.|.|.|.|.|.|.|.|.|.|.|.",
"|.|.|.|.|.|.|.|.|.|.|.|.|.|.|.|.|.|.|.|.|.> : 5 ] y.I.W.T.B.P.).E.H.A.v.l.h.;._ V 2 * 2 |.|.|.|.|.|.|.|.|.|.|.|.|.|.|.|.|.|.|.|.",
"|.|.|.|.|.|.|.|.|.|.|.|.|.|.|.|.|.|.|.|.|.|.|.|.: 3 ^ ] [ [ O.8.7.O._ ( V v z 4 4 |.|.|.|.|.|.|.|.|.|.|.|.|.|.|.|.|.|.|.|.|.|.|.",
"|.|.|.|.|.|.|.|.|.|.|.|.|.|.|.|.|.|.|.|.|.|.|.|.|.|.|.|.|.|.) ' ] ] ' / |.|.|.|.|.|.|.|.|.|.|.|.|.|.|.|.|.|.|.|.|.|.|.|.|.|.|.|.",
"|.|.|.|.|.|.|.|.|.|.|.|.|.|.|.|.|.|.|.|.|.|.|.|.|.|.|.|.|.|.|.|.|.|.|.|.|.|.|.|.|.|.|.|.|.|.|.|.|.|.|.|.|.|.|.|.|.|.|.|.|.|.|.|.",
"|.|.|.|.|.|.|.|.|.|.|.|.|.|.|.|.|.|.|.|.|.|.|.|.|.|.|.|.|.|.|.|.|.|.|.|.|.|.|.|.|.|.|.|.|.|.|.|.|.|.|.|.|.|.|.|.|.|.|.|.|.|.|.|.",
"|.|.|.|.|.|.|.|.|.|.|.|.|.|.|.|.|.|.|.|.|.|.|.|.|.|.|.|.|.|.|.|.|.|.|.|.|.|.|.|.|.|.|.|.|.|.|.|.|.|.|.|.|.|.|.|.|.|.|.|.|.|.|.|.",
"|.|.|.|.|.|.|.|.|.|.|.|.|.|.|.|.|.|.|.|.|.|.|.|.|.|.|.|.|.|.|.|.|.|.|.|.|.|.|.|.|.|.|.|.|.|.|.|.|.|.|.|.|.|.|.|.|.|.|.|.|.|.|.|.",
"|.|.|.|.|.|.|.|.|.|.|.|.|.|.|.|.|.|.|.|.|.|.|.|.|.|.|.|.|.|.|.|.|.|.|.|.|.|.|.|.|.|.|.|.|.|.|.|.|.|.|.|.|.|.|.|.|.|.|.|.|.|.|.|.",
"|.|.|.|.|.|.|.|.|.|.|.|.|.|.|.|.|.|.|.|.|.|.|.|.|.|.|.|.|.|.|.|.|.|.|.|.|.|.|.|.|.|.|.|.|.|.|.|.|.|.|.|.|.|.|.|.|.|.|.|.|.|.|.|.",
"|.|.|.|.|.|.|.|.|.|.|.|.|.|.|.|.|.|.|.|.|.|.|.|.|.|.|.|.|.|.|.|.|.|.|.|.|.|.|.|.|.|.|.|.|.|.|.|.|.|.|.|.|.|.|.|.|.|.|.|.|.|.|.|.",
"|.|.|.|.|.|.|.|.|.|.|.|.|.|.|.|.|.|.|.|.|.|.|.|.|.|.|.|.|.|.|.|.|.|.|.|.|.|.|.|.|.|.|.|.|.|.|.|.|.|.|.|.|.|.|.|.|.|.|.|.|.|.|.|.",
"|.|.|.|.|.|.|.|.|.|.|.|.|.|.|.|.|.|.|.|.|.|.|.|.|.|.|.|.|.|.|.|.|.|.|.|.|.|.|.|.|.|.|.|.|.|.|.|.|.|.|.|.|.|.|.|.|.|.|.|.|.|.|.|.",
"|.|.|.|.|.|.|.|.|.|.|.|.|.|.|.|.|.|.|.|.|.|.|.|.|.|.|.|.|.|.|.|.|.|.|.|.|.|.|.|.|.|.|.|.|.|.|.|.|.|.|.|.|.|.|.|.|.|.|.|.|.|.|.|."
};
