/* XPM */
static char *result[] = {
/* columns rows colors chars-per-pixel */
"64 64 39 1 ",
"  c #0C0F13",
". c #0E1115",
"X c #101317",
"o c #12161A",
"O c #15191E",
"+ c #18191D",
"@ c #171B21",
"# c #181D22",
"$ c #1C2126",
"% c #1E2329",
"& c #212226",
"* c #22272D",
"= c #23292E",
"- c #252B31",
"; c #282E35",
": c #2A3037",
"> c #2D343B",
", c #30373E",
"< c #31383F",
"1 c #343B43",
"2 c #373F48",
"3 c #384047",
"4 c #3B444C",
"5 c #3F4750",
"6 c #3F4851",
"7 c #424B54",
"8 c #464F58",
"9 c #47515A",
"0 c #4A545D",
"q c #4D5760",
"w c #4E5963",
"e c #515B65",
"r c #535E69",
"t c #56616B",
"y c #58646F",
"u c #5A6671",
"i c #5E6A75",
"p c #616D79",
"a c #65727E",
/* pixels */
"uyw41111111::%#@o.%0paaw>:11>-%%%%%%%%%%%%#o .@6py2=%%%%%%%@XXXo",
"riu7>:-;;-:11*##Oo$6paa0-*---%%%%%%%%%%%%%%@. O1yp61%%%%%%%#.  #",
"4tiq>%%%%**=;*##@oO4iaa0-%%%%%%%%%%%%%%%%%%$o..;wpr1*%%%%%%$X X#",
":7uu3%@####$$$##@Oo>yaaw-%%%%%%%%%%%%%%%%%%%@..@6uy6:%%%%%%#o X%",
"->qu9-###########@o*wppw:%%%%%%%%%%%%%%%%%%%$O.o:wiq1%%%%%%%#..%",
"-;3tt1$##@#@####@@O@6iir>%%%%%%%%%%%%%%%%%%%%#..#4tt5-%%%%%%#X.%",
"--:9y5%#@####@####OO1tit3%%%%%%%%%%%%%%%%%%%%%#oo*6tq1%%%%%%#. #",
"-=;3r9-#@#@#######@o*9ii6*%%%%%%%%%%%%%%%%%%%%%#oo:6q2:%%%%*#@.#",
"=--<0e3%###########o#4ui0;%%%%%%%%%%%%%%%%%%%--*@.o-221*%%%%#@.@",
"----4w6>$###@###@#@Oo>rpt1%%%%%%%%%%%%%%%%%%====#o.@-:1-*%*#*#.o",
"==-->6e6*@@##@#####@o%8iu4%%%%%%%**%%%%%%%%%==--=#..@*:1=%%%*#Xo",
"=----30w3$@####@###@OO3ti9-%%%%%***=%**%%%%%=====*@  @%1;*%%%#oo",
"-==-->4e9:######@##@@o=qie>%%%%%***=***%%%%%===--=#@ .@=;*%%%%@o",
"=-=-=->6w6=#@#######@o#4yy3%%%%%********=%%%%==-==%@  X#%*%%%%#o",
"=----=-1qw1%###@####@@o=9y4%%%%%******=*==%%%%-=-==#@  X##%%%%#@",
"==-===->4w9>########@@o#3r9-%%%%**********==*%=----=#X  X@#%%%#@",
"==--=--->6e4%########@Oo-6w:%%%%%******=**=**=====-=%o.. .O$$%%#",
"-==--=-=-19q<#########oo$3q3%%%%*=***********=%=---=%@. ..XO@$%$",
"====---==:2q4%########@oO1q4%%%%%=***********=*%=--==%o X   o@%$",
"--=-==---->69>#########oo-66-%%%%=***====*******===--%@Xooo  o@@",
":-===-==-=;202%########Oo#46:%%%%***%==%*******=====-=%oX@O.  oo",
"<--==-=-=-->76-##@#@####oo19<%%%%==*=**=**=*****==-=-=%OXO$@o  X",
"6>-===-==-=;492######@#@@o-06%%%%***=***********%====-=@.@$%$X .",
"w2:---=---==<97:###@####@o%69-%%%%*****=*****==*====-==%oo%1>$. ",
"r01-=---=-=-;202%#@##@##@o@3q<%%%*=**********=**%-%---;%oo;46>o.",
"9e7<--=--===->66-########@o:q6*%%%****=**=******-%-----%@o%4w5%o",
"2qw6>---=--=--292%#######@o=99:%*%=*************%-%-----%o$3w9;$",
":4wq4:*--==-=->66>%###@###o#4w3-%**************=-%%--%-%%@@;9w3%",
"#>6w93---=--=--<64-#######@o>w6:%***=******==%====%=----%$O%5r6:",
"O%36w6<---=-=---14<%#######o-6e3=%**********===%%-==%-=--%O@>qq1",
"oo*39w6:====----:<<=%##@##@o@3r6;%*****==*=%=%====%=-----=$o%6w4",
"o.o-4004>=---==--->-%######@o-0w,*********=====%=%==%=====$O$106",
"o..O:6e63--=-==----:-#@####@o@4e4=************=******==--=%#O*37",
"#@..$36w6>--==--==-::*######@o:w8:*******=**=*********=-=-=$o#-1",
"#O..X%36q4---=-==---:-%#####@X$60,==**************=*=*==---%Oo%-",
"#OXoXo%3q93-=--=-=---:=%#@##@oo<04=*=******************=-==*#oO*",
"OoO%@.o=4e6<----=--=-::-$@###@o%77:=*******************=-===$oo$",
"Oo%>-o.o-604;==--=----::=####@oo18>=**=***=**=**=*=****=----*OoO",
"Oo;33%@X#>693==-=-=----:=#@###oo%43-*******************==-=-=$oo",
"oo14>;%oo%464:----=-=----%####@oO,4:=*****=**********=**=====*O.",
"o#<3::-$Oo*343;=--*---*--%$@@$#o.%11-==****=****%=%=%=%====---$o",
"o%3<::::%oO-33:-----*-=--==$#@@@XO;1:=********=*=======-==--%-$$",
"o-3:;;<3:#o#-3::----=--=-=-%$@#@o.$>>=**=*****=*==%===-%%=-=--%%",
"O:3---:33-@O$:3:-----==--=-=%%$@O.o=,-************===%%====-=--=",
"O>3;--:13:%O@%:>>---==-=-=--=%%$Oo.$>:==****=***==**-%---%%=----",
"$<>--;-:>:=#o@%;>>:=-=---==--==%$o.o;>==********%==*%-=%%=---%--",
"$>>;;--;::-%#@o#:>>:--=---=-=--%$#..$>;=*=******=*%=-%-%-%--%---",
"$1>;---;---=%#@@%><>:-=-=---=-===$O.O;>=******=****=%-%-%-%---=-",
"$>:;--;-;----&&+o$>,>:;===--=-=-=*#X.*>;**************=***====-=",
"$>:-;--;;-;---&+oo%><,:----=---===&O.+;:=**=******=*********==--",
"O;:;-;-;-------&#oO=>1,;---%-=-==**#XX=>==**=**=************===-",
"o=;;-;---;-;---=$Oo+%:,,;;---=--=***o.#>;*******=*****=*=***===-",
"O=;--:;-----;--=*&Oo+$:,<;-=--=--***#Xo=;**==********=**====%=-=",
"O%;-----;;-;----==&#oo#;>>;=-=--==**%o.#-=**************=%=%===-",
"o$;;;;=;----;--==-==$oX+=>>---====***+Xo==*****=**=*****%=-====-",
"O$=--;;-;-;-;;----;=*&++O%--=-=%*=**=#XX%=*************===%-%=%-",
"+&;&&;&;---;---;--;---&+oo$====**==**&O.o*==****=*******%=****==",
"+&-;:;:;-;-;-;--------;&Oo.+*==**===**#.o%*************=*=**=*==",
"++-;;;:;;;--;-;--;-;---&%@.oO*=***==**%O.o%***=**********=*****=",
"++;&;-&;-;;-;-;---;;--&-=$o.oO*=***=***@.o#*********=**********=",
"X+-;;&:-&;&;--;--;--=;=***$o.o+%*******#o.O*=******==**********=",
"X+&;;:;;:;:;;----;-;;;-**=%@X.o#%******%o o#***************=****",
"X+-;;&&;;;:;;-;------;;=***%OX.X@%****=*O..@*******************=",
".+&-;;:-;-&;-;-;;-;;--==****#o.Xo#******#..O%***=*******=*******"
};
