/* XPM */
static char *fc2d09e62137420cf56928c4ed5ec399SoX0lsNzmWEPn6jh[] = {
/* columns rows colors chars-per-pixel */
"64 64 187 2 ",
"   c None",
".  c #0F0B09",
"X  c #130E0D",
"o  c #18140F",
"O  c #13100E",
"+  c #151415",
"@  c #1A1615",
"#  c #171817",
"$  c #1C1916",
"%  c #161619",
"&  c #181719",
"*  c #17191C",
"=  c #1B1A1C",
"-  c #231A15",
";  c #2A1D16",
":  c #221D1A",
">  c #2C1D1B",
",  c #2E2117",
"<  c #24211D",
"1  c #2C241C",
"2  c #2F281C",
"3  c #302016",
"4  c #34261B",
"5  c #352D1F",
"6  c #392E1B",
"7  c #3B321D",
"8  c #1C1E22",
"9  c #171D22",
"0  c #221F21",
"q  c #1D2124",
"w  c #1D2329",
"e  c #232325",
"r  c #2A2524",
"t  c #2C2925",
"y  c #23262A",
"u  c #282628",
"i  c #25292C",
"p  c #2A2A2C",
"a  c #3D2221",
"s  c #312E2C",
"d  c #302B23",
"f  c #34312D",
"g  c #3B362A",
"h  c #3E3023",
"j  c #252B31",
"k  c #2C2D33",
"l  c #322F31",
"z  c #2E3135",
"x  c #2E333A",
"c  c #263139",
"v  c #323235",
"b  c #3A3634",
"n  c #3C3936",
"m  c #31333A",
"M  c #38373C",
"N  c #35383E",
"B  c #3A3A3C",
"V  c #442523",
"C  c #5C2B29",
"Z  c #413425",
"A  c #4B3923",
"S  c #4C3929",
"D  c #433C2D",
"F  c #533C26",
"G  c #513C29",
"H  c #433D34",
"J  c #433D3B",
"K  c #433736",
"L  c #573230",
"P  c #54402B",
"I  c #564327",
"U  c #4A4337",
"Y  c #685429",
"T  c #785F2E",
"R  c #745F2F",
"E  c #6A4E33",
"W  c #725335",
"Q  c #715C31",
"!  c #353740",
"~  c #363841",
"^  c #3B3D45",
"/  c #313E48",
"(  c #3D3E49",
")  c #413F46",
"_  c #3E4146",
"`  c #3F414A",
"'  c #424244",
"]  c #4A4542",
"[  c #484847",
"{  c #42444D",
"}  c #46484C",
"|  c #4B4B4D",
" . c #4A474E",
".. c #544C44",
"X. c #534C4A",
"o. c #53504F",
"O. c #5E5246",
"+. c #444651",
"@. c #474954",
"#. c #484955",
"$. c #4E4F59",
"%. c #4B4D58",
"&. c #4E505B",
"*. c #4E5256",
"=. c #515255",
"-. c #515259",
";. c #55545B",
":. c #51525C",
">. c #55555D",
",. c #54595C",
"<. c #5A5D5E",
"1. c #5A5756",
"2. c #66594B",
"3. c #73674F",
"4. c #726450",
"5. c #776B55",
"6. c #565662",
"7. c #565862",
"8. c #565B61",
"9. c #595863",
"0. c #5A5A61",
"q. c #5E5D66",
"w. c #5B5C63",
"e. c #5E5E68",
"r. c #5F6468",
"t. c #626265",
"y. c #62616A",
"u. c #64636C",
"i. c #66656E",
"p. c #64636C",
"a. c #68676D",
"s. c #676B6C",
"d. c #6C6B6B",
"f. c #73706F",
"g. c #646B72",
"h. c #696972",
"j. c #6D6D72",
"k. c #676773",
"l. c #6C7178",
"z. c #747576",
"x. c #74797E",
"c. c #7F7C7A",
"v. c #767678",
"b. c #89713D",
"n. c #967637",
"m. c #867962",
"M. c #A0803F",
"N. c #A8833E",
"B. c #94866A",
"V. c #A48F71",
"C. c #A49275",
"Z. c #AB9777",
"A. c #AC9B7B",
"S. c #C19844",
"D. c #727A83",
"F. c #757F8A",
"G. c #778287",
"H. c #7A858E",
"J. c #7F898F",
"K. c #788289",
"L. c #7C8892",
"P. c #878889",
"I. c #848587",
"U. c #818C95",
"Y. c #8B9097",
"T. c #89959E",
"R. c #87939E",
"E. c #929495",
"W. c #9C9D9F",
"Q. c #97979B",
"!. c #8E9EA7",
"~. c #8E9CA8",
"^. c #909FAB",
"/. c #9C9EA0",
"(. c #9EA1A5",
"). c #A0A2A5",
"_. c #ABACAD",
"`. c #ADAFB1",
"'. c #B3B6BA",
"]. c #C0AE84",
"[. c #C5B28A",
"{. c #CCB791",
"}. c #E4CC9C",
"|. c #E0C79B",
" X c #EAD2A3",
".X c #C6CFD6",
"XX c #C9CFD7",
/* pixels */
"                                                                                                                                ",
"                                                                                                                                ",
"                                                                                                                                ",
"                                                                                                                                ",
"                                                          ~ ! x k k j j j k x ~                                                 ",
"                                                  j i i k x l M m M M M N v v x m z k j y                                       ",
"                                              j y u z ' =.w.p.u.k.a.i.i.u.u.y.7.:. .^ k u w y j                                 ",
"                                w 8 y j j c y j ! :.p.j.j.h.u.e.w.w.0.7.0.0.q.e.p.u.u.y.>.} M y i j j                           ",
"                            j i w y k l m l m ) e.D.k.6.&.%.%.#.#.#. .#.#.#.#.#.$.$.:.9.e.p.y.:.' p w y j                       ",
"                        y w y N #.6.9.e.q.q.e.u.6.&.( ( ( #.#.#.#.#.+.#.+.+. .#.+.#.#.#.%.$.6.e.p.>.) i y j                     ",
"                    y w e B ;.p.D.%.6.&.) $.%.) ( ~ ( ( #.%.#.#. .#.#.#.#.#.#.#.#.#.#.#.@.@.#.%.&.6.q.*.m y w w                 ",
"                  w w z *.i.i.9.%.#.+./ ) ) ~ ~ ~ ( ( #.#.#.%.#.#.#.#.#.#.#.#.#.#.#.#.#.#.#.#.@.#.#.&.7.>.' u 8 w               ",
"              w 8 e ( r.h.q.&.#.#.#.#.#.+.+.+.( #.#.#.#.#.#.#.#.#.#.#.#.#.#.#.#.#.#.#.#.#.#.#.+.` ( ( ` +.$.' r 9 8             ",
"            w 8 i #.i.k.6.#.#.#.#.#.%.#.#.#.#.#.#.#.#.#.#.#.#.#.#.#.#.#.#.#.#.#.#.#.#.#.#.#.#. .` B k y y p v p = = w           ",
"          8 = u &.h.e.%.#.#.#.#.#.#.#.#.#.#.#.#.#.+.#.#.#.#.#.#.#.#.#.#.#.#.#.#.#.#.#.#.#.#.#.#.@.+.` N u = & = & & * 9         ",
"          9 0 %.k.9.%.@.%.#.#.#.#.#.#.#.#.#.#.#.#.#.#.#.#.#.#.#.#.#.#.#.#.#.#.#.#.#.#.#.#.#.#.#.@.#.#.+.^ m 8 & & = q w w       ",
"        9 8 ) u.6.#.#.%.#.#.#.#.#.#.#.#.#.#.#.#.#.#.#.#.#.#.#.#.#.#.#.#.#.#.#.#.#.#.#.#.#.#.#.#.#.#.#.#.#.@.~ e & i _ c q       ",
"      9 = k 0.7.%.#.#.#.#.%.#.#.#.#.#.#.#.#.#.#.#.#.#.#.#.#.#.#.#.#.#.#.#.#.#.#.#.#.#.#.#.#.#.#.#.#.#.#.#.#.@.^ i 8 c           ",
"      * q | 7.%.#.#.#.#.#.%.#.#.#.#.#.#.#.#.#.#.#.#.#.#.#.#.#.#.#.#.#.#.#.#.#.#.#.#.#.#.#.#.#.#.#.#.#.#.@.#.@.%.( w * w         ",
"      = z :.*.@.#.#.#.#.#.#.#.#.#.#.#.#.#.#.#.#.#.#.#.#.#.#.#.#.#.#.#.#.#.#.#.#.#.#.#.#.#.#.#.#.#.#.#.#.#.@.@.@.+.! w * w       ",
"    + = B *.@.@.#.#.#.#.#.#.#.#.#.#.#.#.#.#.#.#.#.#.#.#.#.#.#.#.#.#.#.#.#.#.#.#.#.#.#.#.#.#.#.#.#.#.#.#.#.#.@.@.#.{ k 9 q       ",
"    + 8 _ @._ _ #.#.#.#.#.#.#.#.#.#.#.#.#.#.#.#.#.#.#.#.#.#.#.#.#.#.#.#.#.#.#.#.#.#.#.#.#.#.#.#.#.#.#.#.#.#.@.+.+.#.^ 8 9       ",
"    X 8 ^ B i ^ #.#.#.#.#.#.#.#.#.#.#.#.#.#.#.#.#.#.#.#.#.#.#.#.#.#.#.#.) %.#.#.#.#.#.#.#.#.#.@.#.#.#.#.#.#.@.( m { { p % *     ",
"    . 8 j 8 e ^ %.%.) #.#.#.#.#.#.#.+.#.#.#.#.#.#.#.#.#.#.#.#.#.#.#.#.#.#.#.#.#.#.#.#.#.@.#.#.@.#.+.#.#.#.#.@.~ 0 j ^ v & #     ",
"    X + = % 8 ^ @.+.( ( ) %.%.#.#.#.#.#.#.#.#.#.#.#.#.#.#.#.#.#.#.#.#.#.#.#.#.#.@.@.@.#.#.#.@.@.+.+.+.#.@.@.{ N e = p k & +     ",
"    X X # # 0 m _ ' N N ) ) #.#.+.( +.#.#.%.#.#.#.#.#.#.#.#.#.#.#.#.#.#.#.#.#.#.+.+.+.+.@.#.+.+.^ ( +.#.+.` ! m u & * = + +     ",
"    X + & # 8 k M ! m m ! ) ) ) ( ! ! / ) #.#.%.#.#.( ( #.#.#.#.#.#.#.#.#.#.#.) ( ! ( +.@.@.) ! N ~ { { ^ N m m p = % % + +     ",
"      X & & 8 k m m m m ! ! ) ) ! m m ! ! ( +.) #.) ! / ( ) #.#.#.#.#.#.#.%.( ( ! m ! ( ( ~ ! ! x N ! ! m m m m p = # + + +     ",
"          % = k m m m m m m m m ! ! m ! m m ! ( ( ( ! c ! ! ) #.#.%.#.#.+./ ! ! ! m m ! m m x m m m m m m m m m p = % = +       ",
"          & % u l m m m m m m m m m m m m m m m ! ! m m m ! ! ~ ( ) ( ! ! ! ! ! m m m m x m m m z m m x m x m l p = 8 w O       ",
"          & % 0 k m m m m v m M m m m m m m m m ! m m m ! ! k ! ! / ! m m m c m m m m m m m m m m m m m m m m z e # w           ",
"            & & 0 m m m m M m m m m m m m k m m ! c k ! k m ! k ! ! m ! m m c ! m m m m c m m z m m m m m x m k 8 * 8           ",
"            = * = p v m M m m m m m m m m z m x m c m m m x z m ! m m m m m m m m x m z m m m m z m m m m x z y & 9             ",
"              = = 9 p z m k M m k k m m m m m m m m m m m m m z m m m m m m m m m m m m m x z x m m m m m k y = =               ",
"                9 = 9 u k l m v y y k m z m m m m m m m m m m m m m k m m k m c m x m x z k y k m m m z k e = 9 8               ",
"                  9 * = 8 p p u 8 * 0 k m m x m m m m m z m m x c m m m m m m m m x v z i 8 8 k z z k y 9 = 8                   ",
"                      = & = = p u = % 8 i k v m m ! m m x m m m m m m ! m m m m m z k e & % e p k y = = 9 e                     ",
"                        q & < | d.o.u & # 0 i p j k m k m m m m m m k k m m m k k i = = # & & q 8 8 8 8                         ",
"                            : N y.m.f.X.u # & : e u j l z m m x m m m ! m k j w = & & = # & & = 8                               ",
"                              u l ] a.c.1.: , Y T 6 & 8 e i p k k u u y 8 8 & & # & & & q e w                                   ",
"                                  k p ' n 5 T S.N.A $ : # # = = 8 9 0 0 : - > - & & & = j k                                     ",
"                                  y # # 6 Q M.n.I 2 g B s : # + + a X.1.L C C V - & e p y j                                     ",
"                                8 e q < I b.Q 6 : f ] o.[ t & r u u K K a V a 3 = % p ,._ e y                                   ",
"                              q e %.,.p 2 Z 2 = d n J U U = r d.v.u + & & = p v n e 8 0.D.` 9 i                                 ",
"                            q e r.T.G.z # u e r f b n n r # [ `.I.0 % 0 8 = n <.g.' & ^ U.U.| y c                               ",
"                          q * *.'..XG.w p ,.} : = < s p & < z.(.$.& 0 b 0 & e m ,.r.e p Y..X(.N 8 x                             ",
"                        i q # x c.(.r.# t _ k 8 s N p = = ' I.t.0 + & 0 ~ <.=.e p | p w j.(.d.r # i x                           ",
"                        q e H H f f e # = p } z.(.Q.| # 0 =.<.p & 0 ) u.E./.j.u # i p = p f f U H < i z                         ",
"                      9 : 2.A.C.5.d # N d.E.`.'.Q.s.v & q i 0 u | a.z.z.t.' p e r u : & : ..m.C.Z.2.: y                         ",
"                      # r C. X}.A.g = f._.W.z.| s i B *.` w + z <.0.) p = + r n [ ] b e > 2.A.|. XB.< 8                         ",
"                      = : 4.[.}.].D * U [ v p x @.g.J.R.L.g._ p r = = 0 & : s J ] X.X.U s r 4.{.[.2.< e                         ",
"                        e d U 3.5.g # q v @.s.H.T.!.^.^.(.!.U.g._ e 0 0 & 0 l b b J ] X.] s d ..U d t                           ",
"                          r s f t = @ u @.p.l.D.G.K.H.L.L.U.U.J.x.,.x e 8 & e s v b K J ] U : = p H                             ",
"                                  # @ = 0 e p s s x v n B ^ ~ ^ ^ B z e : = $ : r d s v b f < =                                 ",
"                                      # + - S F I A A Z 1 # 8 k e & < Z S G P P h : = : : $ o                                   ",
"                                        + - S E W W E P 1 # 8     # < S E W W E S - + &                                         ",
"                                        # + - 1 4 4 4 < & &       & # ; 4 4 4 4 - @ +                                           ",
"                                          + & - 3 3 ; @ + #       = & @ ; ; 3 ; @ +                                             ",
"                                          + + @ - - - o X           # @ @ - - - o                                               ",
"                                                                                                                                ",
"                                                                                                                                ",
"                                                                                                                                ",
"                                                                                                                                ",
"                                                                                                                                "
};
