/* XPM */
static char *a2a9641b47ea40b5a6c8f56c7b9c8c00TVtDoHiL59zgs6N0[] = {
/* columns rows colors chars-per-pixel */
"64 64 200 2 ",
"   c None",
".  c #0F141C",
"X  c #151516",
"o  c #1A1614",
"O  c #151816",
"+  c #1C1916",
"@  c #15161A",
"#  c #181719",
"$  c #15191C",
"%  c #1A1A1C",
"&  c #231B16",
"*  c #221D1A",
"=  c #2A1D16",
"-  c #25221E",
";  c #2A241C",
":  c #2F291E",
">  c #332116",
",  c #342419",
"<  c #36291E",
"1  c #131720",
"2  c #151B22",
"3  c #1D1D22",
"4  c #161D28",
"5  c #211F23",
"6  c #1D2023",
"7  c #182228",
"8  c #222225",
"9  c #2B2522",
"0  c #2D2923",
"q  c #252529",
"w  c #26282C",
"e  c #2A2A2D",
"r  c #28262B",
"t  c #332C25",
"y  c #322F2A",
"u  c #372822",
"i  c #35322E",
"p  c #39332C",
"a  c #3C392D",
"s  c #3A3225",
"d  c #252B32",
"f  c #2C2D32",
"g  c #262E38",
"h  c #302F35",
"j  c #2F3136",
"k  c #2F333A",
"l  c #313236",
"z  c #393432",
"x  c #3B3935",
"c  c #32333A",
"v  c #35393D",
"b  c #3B3A3E",
"n  c #432919",
"m  c #422917",
"M  c #453728",
"N  c #543F2F",
"B  c #433D32",
"V  c #493E33",
"C  c #55412F",
"Z  c #4C453A",
"A  c #45403F",
"S  c #534A38",
"D  c #363741",
"F  c #363A42",
"G  c #3B3C44",
"H  c #323E4B",
"J  c #3D3E49",
"K  c #403F44",
"L  c #3F4147",
"P  c #3D424B",
"I  c #3B4A58",
"U  c #3B4756",
"Y  c #3E4E6A",
"T  c #434244",
"R  c #494542",
"E  c #42434C",
"W  c #46494E",
"Q  c #4A4B4F",
"!  c #4B4848",
"~  c #544E49",
"^  c #5B5141",
"/  c #55524F",
"(  c #464651",
")  c #474852",
"_  c #474954",
"`  c #474953",
"'  c #494A52",
"]  c #484954",
"[  c #484955",
"{  c #494955",
"}  c #494954",
"|  c #484A55",
" . c #494B56",
".. c #494A56",
"X. c #494955",
"o. c #4B4E5B",
"O. c #504F5E",
"+. c #4E5256",
"@. c #4D545B",
"#. c #54545B",
"$. c #595A5D",
"%. c #565559",
"&. c #655945",
"*. c #64594C",
"=. c #6A5D48",
"-. c #655C50",
";. c #74654F",
":. c #69645A",
">. c #776952",
",. c #726654",
"<. c #7E715B",
"1. c #5C5C63",
"2. c #595B68",
"3. c #45567A",
"4. c #464F66",
"5. c #5A6166",
"6. c #5D636B",
"7. c #5B657D",
"8. c #61606A",
"9. c #62656D",
"0. c #686869",
"q. c #756868",
"w. c #646C72",
"e. c #6C6C73",
"r. c #666671",
"t. c #706F77",
"y. c #697276",
"u. c #6E737E",
"i. c #6E797E",
"p. c #727376",
"a. c #70797F",
"s. c #7D7A75",
"d. c #806E57",
"f. c #8D7D5D",
"g. c #84795F",
"h. c #8B7D65",
"j. c #8F8067",
"k. c #998869",
"l. c #87847F",
"z. c #9E8E71",
"x. c #9D9070",
"c. c #A39274",
"v. c #AB9675",
"b. c #AB9A73",
"n. c #AC9C7A",
"m. c #B19D7A",
"M. c #B6A27E",
"N. c #4F6184",
"B. c #5B6A88",
"V. c #666E82",
"C. c #727C81",
"Z. c #747F8A",
"A. c #6A7693",
"S. c #7A848B",
"D. c #7A828A",
"F. c #798596",
"G. c #7D8BA4",
"H. c #848D94",
"J. c #86929A",
"K. c #89949D",
"L. c #829097",
"P. c #8B8E92",
"I. c #B7A482",
"U. c #BBA989",
"Y. c #BCA784",
"T. c #8B95A3",
"R. c #8D9BA4",
"E. c #8E9CA9",
"W. c #909DA4",
"Q. c #929EAB",
"!. c #98A2AA",
"~. c #9BA6B6",
"^. c #AFACAB",
"/. c #ABB5BE",
"(. c #B1B5BD",
"). c #A6A7B2",
"_. c #C2AD8A",
"`. c #C3B187",
"'. c #CBB58B",
"]. c #C6B28E",
"[. c #D2BC91",
"{. c #DAC497",
"}. c #E2CB9B",
"|. c #CAC7BF",
" X c #E5CCA2",
".X c #EDD3A3",
"XX c #EAD5A6",
"oX c #F1D6A5",
"OX c #F6DAA5",
"+X c #F9DBA5",
"@X c #F5DAA9",
"#X c #F9DCA9",
"$X c #AEB8C1",
"%X c #B3BBC2",
"&X c #CACED1",
"*X c #DBDCD9",
"=X c #CCCCCA",
"-X c #DDE2E7",
";X c #E0E6EB",
":X c #F1F2EC",
/* pixels */
"                                                                                                                                ",
"                                                                                                                                ",
"                                                                                                                                ",
"                                                                                                                                ",
"                                                    2 # o $ X @ X X X #                                                         ",
"                                                $ % r l K E W W K D h r 3 % . @                                                 ",
"                                            1 # e %.e.e.9.8.8.8.8.2.#.{ v q @ @ @ X @ $                                         ",
"                                          $ % K e.e.1.o.' E J D c f d d q r q 6 3 3 # # # $ 1                                   ",
"                                        $ 5 O.t.8.{ K K D D J K K K ...._ ( ) ) E P J c f 5 3 1 1 1                             ",
"                                  2 % $ 5 2.e.#.K J K ( { { [ { ........} } _ } _ _  . ._ _ K G d 3 $ $ 4                       ",
"                    $ @ @ # % 3 5 5 r f #.8.o.( ( ..} } { { { { } } } } } _ } } _ } _  .[ [ [ ..} K c 8 # 1                     ",
"                2 # 3 e L ' $.1.8.8.1.2.#.} } } ....{ { } } { { _ _ } } _ } _ _ } _  ._ [ [ [ [ ....} ( c 3 $ 1                 ",
"            2 @ % b $.e.e.9.2.2.O.......( [ [ [ } ..} ..{ { { { } [ [ [ [ [ [ [ _ } [ [ [ [ [ [ ..[ [  ._ P f @ 1               ",
"          4 $ r #.p.e.2.' J J E ..[ ......} ..} ..} ..} { { { { [ [ [ [ [ [ [ [ _  .[ [ [ [ [ [ ..[  ... ._ ( c % $ 4           ",
"          1 8 1.0.o.G f f G ( } [ [ ..} ....} ..} ..} ..{ { { { [ [ [ [ [ [ [ [ } .._ } [ [ [ [  ._ [  ... .} } D 3 $           ",
"        2 $ B Q f 3 3 c E } } } [ [ [ ..} ....} ..} ..} { { { { [ [ [ [ [ [ [ [  ._ .._ [ [ [ [ _  ._ ........} J % @ $         ",
"        $ # 5 # # q K } } } } ..} ..} ..} ..} ..{ { { { { { { { [ [ .._ _ ..} _ [ [ } _ _  .} _ } [  ... . . .J 8 @ @ 2         ",
"        $ X o o r ( .... .} ..} ..} ..} ..} ..} { { { { { { { { [ } _ ...._  ...[ [ [ ...._  ...[ [ _ .._ ) L 8 @ 3 # $         ",
"        6 # @ r K ..{ { } ..} ..} ..} ..} ..} ..[ { [ [ { { { { [ [ .._ _ .. ._ [ [ .._ _ }  ._ ..}  ... .G 6 O # b e o 2       ",
"        k # 3 J } } { { ..} ..} ..} ..} ..} ..} [ [ [ [ { { { { _ _ _ [ } _ _ _ [ [ _ .._  ._  ._ _ _ _ c $ $ % # l G + $       ",
"        7 # v ' { } { { { { [ ..} ..} ..} ..} ....} ..[ ..} ..} J F ) }  ._ }  .[ [ ( G _ _ } } .._ P f # 8 p.$.o q K 8 $       ",
"      6 O 8 T ' ( { { { { { ......} ..} ..} ..} } ..} ..} } ( D k D ( ...... ..._ G d D } } _ } _ J q @ $ x :.G o % G 0 @ 2     ",
"      2 X f W v G { { { { { [ .._ } } ..} ..} ....} ....} K c c k c E _ _ ....( D 3 3 ( '  . .E f % X o & - ; * X # v e @ 2     ",
"      $ X v b 6 D { { { { { [ [ } ....} ..} ..} } ..} } J D c c c c P _ _ _ ( c q @ d K E P v 8 @ 0 *.g.h.j.c.*.o % v r X 4     ",
"      $ # j 6 6 b } } } ..[ [ [ ..[ [ [ ............K K D h c c c k F _ ..J D f # O 8 l 8 # O X O p >.b.{.}..Xj.o X % % $       ",
"      7 o % O 8 b _ } _ J K [ [ [ [ { [ ....K O.....K J h c c f h k c P _ D h q $ @ r e % + x -.S a * : S b.oXj.o X X O $       ",
"      $ o O O q D _ } J c D _ ......{ [ 4.......O.K J D c c c r h c k D G k g % o @ # O * Z <.x.U.].b.>.s &.XX<.X $ 2 $         ",
"      $ O # # 8 c E E c c c J } ....K D K K [ ..K D g D k c j q g c c c c l f $ X % % X - i y e y Z =.x.M.{.XX^ X 2   7         ",
"      2 O O @ r c G D c c c c K ..{ D c D D K o.K J h D h D k 3 g c k c h c q @ : x + Z ^.).7.Y Y I J 8 &. X{.C @               ",
"      $ X o @ 8 j l c c c c c v K K D c h D D J K D h g g h k 3 q k c c c k 5 X p t x |.*XA.3.G.~.I V.%.; M.'.< $               ",
"      $ $ % $ 3 j c c c c c c c D D c c D h D D D g h D D c h 3 3 c c c c h 3 X 0 o s.:X$XN.3.} +.6 o.w.& v.b.& 1               ",
"      2 $   @ # e k j e h c c c D c c c h D h h D D D h g c h 5 # f c c c h 5 # 0 o P.:X$X3.B.u.% 2 2.0.& m.k.+ 3               ",
"            @ @ * h f # r l c c c l c c c c c c c c c c k k c q # 8 h k c h 3 # B ; ! *X-XF.N.V.H 4.T.K s [.c.& 2               ",
"              @ # r 8 @ 2 f c c c c c h c c c c c c c c c c l r # % f c c h 5 o Z ,.- :.=X&XQ.F.T.$Xt.* h.@X_.9 %               ",
"                @ @ % # # 5 f c c c c c l l j l c c c c c c l h 3 @ 5 f c l q X p U.h.s i R / / / K 9 ;. X#X'.t $               ",
"                  @ @ o # X % r l c c c c l e 8 f c c c c c c c r @ $ q l c e @ % z.@X[.m.k.f.f.f.k.I. XOXOXv.& $               ",
"                    @ X o @ @ @ 5 d h l l l j 6 3 r c c c c l c f 3 @ # 8 l l % X S .XOX#X+XOXOX+X+XOX#XOX[.S X %               ",
"                      @ $     @ @ 3 5 r j l l e % $ 3 r h v c l l r # # @ 5 y r # * j.@X+XOXOXOX+X+X+X{.c.V o $                 ",
"                        1 4       1 # # % 8 r j f 3 @ @ % q e l l l 8 @ # @ % 8 % # 9 c.OXoX.X}.'.b.d.V & X $                   ",
"                                        @ @ $ # 3 5 % # X O % 6 r h f 5 # X @ # # X X 0 =.&.S x u + X . 1                       ",
"                                              $ X @ # # @ @ X X X % 3 5 # @ o o # * % X X X X . 1                               ",
"                                              @ $ X % % @ # v ' f @ # @ @ @ @ o u q.q.* o 2                                     ",
"                                              @ $ f +.- X L u.K.D.f X q W L 8 $ o z q.x X 1                                     ",
"                                              1 $ 9.+.X 8 w.D.T.R.2.X q C.S.@.$ # % % 5 @                                       ",
"                                            $ @ j S.k X L i.S.W.E.S.q $ w.R.L.v 3 D w O $                                       ",
"                                          1 X X +.C.7 O 5.i.S.K.R.J.c . ' R.W.y.2 g P 6 %                                       ",
"                                          $ @ % y.6.$ i D.P.W././.%Xw.X F K.R.J.v 2 I 7 $ 7                                     ",
"                                        $ X X q S.| X A P.!.(.-X-X-XH.X j L.E.E.1.$ L H $ $                                     ",
"                                      1 % 8 X v J.W @ $ r l L W W b r @ j L.W.E.S.7 d I 6 @                                     ",
"                                      @ 0 l O W J.v X p ^ Z Z a B Z 9 @ E K.E.E.R.L $ I d @ 2                                   ",
"                                      $ % + O 1.F.8 o h.`.I.M.M.I.U.*.X l K.E.E.E.6.# P H O 1                                   ",
"                                    4 3 z % o 5.S.8 X g..XOX.X.XoX XS X L R.E.Q.Q.S.8 g U $ $                                   ",
"                                    % z A % O q b 8 X ; >.M.{.{.`.>.* X +.C.a.i.y.5.q 6 d $ X                                   ",
"                                    3 R ! i 8 - o X X o o - 0 i ; o X O % & - % $ O O @ @ X $                                   ",
"                                    % A R B x e # X @ % M M M n M C C < o o - 9 - o $                                           ",
"                                    % z x i 9 $     # # * ; > : < < < ; o o & & o X                                             ",
"                                      # % O O       $ X & , > > > > = X o > n > + X                                             ",
"                                                      $ o > n n n n > X & > > = X $                                             ",
"                                                        @ o + & = & o o X o X X @                                               ",
"                                                          X X X X X $                                                           ",
"                                                                                                                                ",
"                                                                                                                                ",
"                                                                                                                                ",
"                                                                                                                                "
};
