/* XPM */
static char *_48e2b1148ea42a89f1aae5b0fae20966PpXyqIyyLPbju76[] = {
/* columns rows colors chars-per-pixel */
"64 64 222 2 ",
"   c None",
".  c #15130F",
"X  c #151515",
"o  c #1A1615",
"O  c #161817",
"+  c #1C1916",
"@  c #15161A",
"#  c #191619",
"$  c #15191C",
"%  c #1B1A1C",
"&  c #101317",
"*  c #231A15",
"=  c #231C1A",
"-  c #2A1D19",
";  c #321C1A",
":  c #24221B",
">  c #2B231D",
",  c #2B281D",
"<  c #3C2819",
"1  c #38281C",
"2  c #131720",
"3  c #151B23",
"4  c #1C1D22",
"5  c #211F22",
"6  c #1D2024",
"7  c #1B232C",
"8  c #1B2734",
"9  c #232323",
"0  c #2B2521",
"q  c #2C2924",
"w  c #25252A",
"e  c #26292B",
"r  c #2B2B2D",
"t  c #28272A",
"y  c #332D26",
"u  c #322E2B",
"i  c #362724",
"p  c #3A332B",
"a  c #37332A",
"s  c #262B32",
"d  c #2C2D32",
"f  c #272B38",
"g  c #312F34",
"h  c #2E3036",
"j  c #2D333B",
"k  c #25323B",
"l  c #323235",
"z  c #32333B",
"x  c #35393C",
"c  c #3A393C",
"v  c #3A3837",
"b  c #40221F",
"n  c #472626",
"m  c #5B2A29",
"M  c #463929",
"N  c #533E2A",
"B  c #423C33",
"V  c #493431",
"C  c #513E39",
"Z  c #733636",
"A  c #6C312F",
"S  c #4C453A",
"D  c #4A4437",
"F  c #554B3D",
"G  c #594E3C",
"H  c #534836",
"J  c #5B442B",
"K  c #664C2F",
"L  c #654B33",
"P  c #6C4E31",
"I  c #745635",
"U  c #2D3845",
"Y  c #343842",
"T  c #3B3C44",
"R  c #3D3F4A",
"E  c #333845",
"W  c #323B54",
"Q  c #2F3C54",
"!  c #3F404A",
"~  c #3B4347",
"^  c #384657",
"/  c #3E4C6D",
"(  c #3F5365",
")  c #444444",
"_  c #42434C",
"`  c #4A4B4C",
"'  c #484948",
"]  c #534D45",
"[  c #5D5343",
"{  c #54524C",
"}  c #454651",
"|  c #474953",
" . c #4D4D56",
".. c #494955",
"X. c #4C4C59",
"o. c #4D5158",
"O. c #53535C",
"+. c #5C5C5C",
"@. c #545657",
"#. c #504F51",
"$. c #6B4B48",
"%. c #635A46",
"&. c #655C4B",
"*. c #645948",
"=. c #675A56",
"-. c #75504E",
";. c #5F6159",
":. c #6D614D",
">. c #72644E",
",. c #766A55",
"<. c #7F735A",
"1. c #61635C",
"2. c #415466",
"3. c #43546B",
"4. c #5B5B64",
"5. c #5E5E69",
"6. c #565A63",
"7. c #475477",
"8. c #48526C",
"9. c #605F69",
"0. c #5C6269",
"q. c #5B6479",
"w. c #636264",
"e. c #64646C",
"r. c #646A6F",
"t. c #6A6A69",
"y. c #69686B",
"u. c #776A69",
"i. c #636D73",
"p. c #6A6A72",
"a. c #696973",
"s. c #706F76",
"d. c #74737A",
"f. c #7D7D7B",
"g. c #727474",
"h. c #767772",
"j. c #843838",
"k. c #87633C",
"l. c #814443",
"z. c #934F4E",
"x. c #84765B",
"c. c #98645F",
"v. c #897864",
"b. c #8F7469",
"n. c #B37472",
"m. c #938466",
"M. c #98876A",
"N. c #9C8D72",
"B. c #8E816B",
"V. c #A39273",
"C. c #AA9877",
"Z. c #B29E7B",
"A. c #AA8B71",
"S. c #B9A47E",
"D. c #505C80",
"F. c #5B6787",
"G. c #56748B",
"H. c #636D8B",
"J. c #777881",
"K. c #6B758C",
"L. c #7A848B",
"P. c #7A868C",
"I. c #788399",
"U. c #6F89A7",
"Y. c #838382",
"T. c #8C8B8B",
"R. c #808897",
"E. c #87949B",
"W. c #979797",
"Q. c #A28A89",
"!. c #B89D98",
"~. c #BAA783",
"^. c #A2A19D",
"/. c #8D9BA5",
"(. c #8D9CA8",
"). c #8B94A8",
"_. c #939DAB",
"`. c #909FA7",
"'. c #838BA1",
"]. c #99A0B3",
"[. c #ADADAB",
"{. c #A3A5A8",
"}. c #ABB2B9",
"|. c #BABBBA",
" X c #B6B6B7",
".X c #B0B0AE",
"XX c #C9938F",
"oX c #C1AC86",
"OX c #C4AD89",
"+X c #C5B18A",
"@X c #CAB48C",
"#X c #CEB98F",
"$X c #D3B98D",
"%X c #D0B78F",
"&X c #CDB790",
"*X c #D3BD95",
"=X c #CFAEA9",
"-X c #DDC69A",
";X c #E4CC9D",
":X c #E9CD9C",
">X c #F0D29E",
",X c #E7D09B",
"<X c #C0C0BF",
"1X c #EED4A4",
"2X c #F4D6A3",
"3X c #F7DAA5",
"4X c #F8DAA4",
"5X c #F9DCA9",
"6X c #F6DCAA",
"7X c #E9CFA3",
"8X c #FCE0A9",
"9X c #B5BBC3",
"0X c #BDBFC2",
"qX c #BFC5CD",
"wX c #C8C7CE",
"eX c #C8CDD5",
"rX c #CCD2D7",
"tX c #D8D9D8",
"yX c #D0CECA",
"uX c #E1E1DF",
"iX c #DCE0E2",
"pX c #E2E3E0",
/* pixels */
"                                                                                                                                ",
"                                                                                                                                ",
"                                                                                                                                ",
"                                                    3 $ @ @ @ @ 4 4                                                             ",
"                                          2 # # % 3 5 w s g g g t 5 % # $                                                       ",
"                                  % % 3 # # 5 d ) ..O.4.9.9.w.a.p.e.O.l % $ 2                                                   ",
"                          7 4 $ X O X X # # 5 5 9 w d l T _ ..X.O.6.e.e.@.r $ 2                                                 ",
"                              $ 6 4 % + X @ X # X + @ X # # w g T _ ....6.O.Y % 2       $ 3 # # 2 3                             ",
"                              $ 2 # = 5 g z T C ) ' ' T T T g t t r T } } ..X.Y 2 # 2 5 5 d g d d t % + # 4                     ",
"                        3 $ % t c X.5.9.a.a.9.9.4.6.O.O.O.X.X...| _ R _ ........Y z T } ..O.4.9.e.a.9. .g 3 % 3                 ",
"                    3 # 5 c O.r.a.9.4.O.............} ..| ....} ......| ..............X.X.} } ..X.O.5.a.s.O.t @ 4               ",
"                7 $ 4 T +.0.6.O.....} X...........................| ....................} R E z g z T } O.p.w.t @ 3             ",
"              3 @ r  .O.X...........X.X.X...............................} ..................} W Y t 4 4 w c O.#.O 2             ",
"            3 % r } ` _ R T R  .5.9.5.8.X...........................................................} g 4 @ 5 g % $             ",
"          $ O % r w 5 4 r ` 9.e.4.X.X.X.X...........} ............................} ..............| ...._ r % @ O $             ",
"        3 O X X X @ 9 ..a.a.6. ...} ..............} } R R } ........| | } } ^ } } } } ........} ............Y 6 X 3             ",
"      3 @ @ % X @ c e.s.5....................._ R E z Y R ..} } ! T T x z j s s w s z ! } ............X... ...| r @ 3           ",
"    8     7 $ $ ' d.p.O.................} R Y Y h j j T T T Y z j d w 6 % O @ O @ $ 4 d T _ | ....} ^ ..X..... .O.t # 3         ",
"          3 # ) d.e.X.................R Y E g d h z j z z h f 5 3 # X 9 h d q : # X X % r l ! ....R Y _ ........6.O.= 2         ",
"        7 $ l s.e. .X.............} T z g g t g l l l l w 4 # 4 u ` h.W.[.|.<X.XY.t.) X % s z ! ..R l z } ........9.R @ 3       ",
"        2 5 w.p.X.| X.........| R Y l l g 5 g z l d w % $ X e @.Y.{.|.tXtXuXuXuXtX[.W.D + % d Y } T z j T ....6.9.5.9.9 #       ",
"      7 # T s.6.| | | ........_ z z z h 5 d g g w % O % O X + % w v ) @.t.f.W.{.|.[.W.T.l X 5 l T z g g z } ..O.d.d.d.c @ 3     ",
"      4 % 6.9...| | ........! Y z z j 4 w l t 4 O e +.f.f.Y.Y.g.+.) a 9 X . O % q d c ' l + % e l l d f z R ..X.s.J.J.#.X 2     ",
"      @ t 9...z } ..X.....| Y z z l 9 $ w 5 # @ r +.t.1.w.w.+.#.) v r = O X X . X . & . . X o 4 g l w w g R ....a.e.y.4.% 3     ",
"    7 @ l O.s s } ..X...| ~ l l l t $ O O O X X O O O + : 9 q u p D D S F [ [ *.&.:.*.] ] v o # r d # 5 g T ....a.9.t ..5 2     ",
"    7 @ d l # h ....| X.} z j h s % X O O O % u F ,.v.M.N.C.Z.Z.~.~.oX+X@X%X+X~.N.x.:.S H B + @ 5 5 # 2 g c ....9.e.5 5 % #     ",
"    3 % 4 % # z | X.X.| T z h e % X O q p q = * , F m.-X,X,X1X2X1X>X3X3X:XV.&.p : : y B H [ u X * # # 5 z E } ..9.a.5 o o 2     ",
"    3 @ @ # # z | | | | T j z r % % S B.N.N.C.B.%.a q OX5X3X4X4X3X3X3X4X+X1 u *.m.S.-X+XC.C.[ + # = # # g T ..} 5.e.5 o % %     ",
"    3 O @ @ # l | o.| | x j l 6 O O p B B G x.V.+X#XS.,X4X4X>X4X>X8X>X8X:XoX#X+XV.x.:.S p B q + B &.* % g R ....5.4.% @ # #     ",
"    3 O 2 $ @ d | | X.} z j d $ + @.a.W W E f d a G ~.3X4X>X4X4X8X>X4X>X3X~.G y u f U Q W i.#.+ { u.+ # d _ ..} 4. .# @ X #     ",
"    3 3     @ % ! X.| _ z z e @ +.9XH.7.W W 7.K.W.u M -X8X4X4X4X>X8X4X4X-XM u W.K.H./ U 7.H.9X=.= ] = # g } ....4.l @ @   3     ",
"            @ $ Y X.X.^ z l 6 9  X_.I.9XY 2 W 7.wXf.+ C.4X4X4X4X8X>X4X4XC.+ f.qXK.eX#.& f 7.]. X> 9 % % z ` ....O.5 2           ",
"              @ 6 ! X.} x h % u yX].F.L.c % Q 7.wXW.o m.4X4X4X4X>X8X8X8Xm.. W.wXF.q.d 5 f / ].yXu + # % ) .... .l o @           ",
"              $ $ d _ ..T d % 4 [.rXF.q.}.q./ I.tXu.* Z.4X2X4X2X8X>X>X8XS.* t.uXK.8.J.}.7.F.eX[.= # # 5 _ ....R % @             ",
"                $ $ d | T d % X S  X9XI.'.I.(.rX^.> G ;X4X4X4X4X>X>X8X>X;XG , ^.rX).I.I.I.9X|.) 9 i # 9 ` ..T 3 @               ",
"                  @ $ l _ d X % 9 r ] +.+.0.w.{ > H @X5X3X4X4X4X8X8X>X8X3X#XH q { y.w.4.4.{ r a ,.p o g ..T 4 @ @               ",
"                    @ $ d l @ O D &.,.,.>.:.>.x.C.;X4X4X3X3X2X>X>X2X3X4X3X3X-XC.x.,.:.>.,.m.V.<.S # X v l 3 $ 2                 ",
"                      2 @ % X X % q %.N.@X-X2X8X4X4X5X3X5X5X:X$X$X:X5X5X3X8X8X8X8X3X1X-X~.m.F : X X $ = @ @                     ",
"                        $ @ X $ 7 4 O + > B G ,.m.V.S.~.#X%X%X%X%X$X%X#X@XoXS.N.x.,.G a : % 8 ^ s & X $ 2                       ",
"                            @ @ s   e $ X X O . + + : : = 0 t i y y , > - - * . X . O X X ^ U.U.U & &                           ",
"                              2 7 7 O 9 x O X X - m m n S B = # q v i V b.-.i = # # # g 4 4 2.G.8                               ",
"                                $ X x d.' & X X + - m l.=X=Xl.l.!.=Xc.z.!.=.5 # # & # _ 0.6 $ k                                 ",
"                              3 @ x P.L.6 @ x e & . O u u.b.Z Z Q.Q.$.i 0 o - ; o o o 5 L.i.6 O                                 ",
"                            3 # z P./.0.O w r.r.~ O X & . * = = 0 9 $ X . ; A A ; . # # 0.E.r.6 $                               ",
"                            $ r }.rX}.T X } P.P.J.0.j 6 X X + l ` +.y.c . - Z j.m o o X T 0XtXd.O 2                             ",
"                          7 X 9 f.0X Xe O 0.`.(./.E.I.;.X X X 5 ' f..XT.# * Z z.z.b # o d {.^.` X @                             ",
"                        7 $ % 0 + 9 r + 9 P.`.(./.(.`.i.O k ~ 8 # = c #.= o c.XXXXC # # # = % 9 a + $                           ",
"                      3 @ y <.N.v.*.0 X x E.(.(./.`.`.i.O U ( j s r 4 X # # $.n.n.=.# % + % :.N.V.,.: @                         ",
"                      $ # <.-X+X~.C.B X | /.(.(.(.(.(.i.O j s ;.1.e j O O X =.XXn.$.+ X @ = m.#X-X*Xp $                         ",
"                      3 X %.-X6X1X@Xy # 0.`.(.(.(.(.i.O.% j k ' ' k U O = % n j.Z b X @ @ + m.6X7Xm., @                         ",
"                        @ + F V.*XC.= % d.`.`.`./.0.7 s % U 2.^ ^ ( U @ + X + - - = r ) % X [ M.[ * O                           ",
"                          $ X * q 0 + % ~ 6.0.s.} O O O $ j ( 2.( ( j % e h e 9 w v ' ) # X O O & @                             ",
"                            2 X X + + X . X o % X > > X X % 9 4 6 6 % O % 4 : O % + X X @ X                                     ",
"                              $ X @ @ @ @ # M L K k.I J N : X @ O O : M N J J K L M # 2                                         ",
"                                        @ @ - M K K P P N * $     $ + N K P P K M - X 2                                         ",
"                                          2 # o * * * * o X @     O O . - * * * . X $                                           ",
"                                          $ # * < b < - o $         $ o > < < < * X $                                           ",
"                                            X + * * * + @             O + * - = @ @                                             ",
"                                                X X @                     @ X &                                                 ",
"                                                                                                                                ",
"                                                                                                                                ",
"                                                                                                                                ",
"                                                                                                                                ",
"                                                                                                                                "
};
