/* XPM */
static char *_7f9e0eefdc64cd9af2c4a1e8bbbf364UFJW7APSVb9RHmSQ[] = {
/* columns rows colors chars-per-pixel */
"64 64 205 2 ",
"   c None",
".  c #0F1115",
"X  c #161516",
"o  c #191615",
"O  c #161816",
"+  c #1C1916",
"@  c #15161A",
"#  c #19171A",
"$  c #15191C",
"%  c #1B1A1C",
"&  c #231B15",
"*  c #221D1B",
"=  c #2A1B1A",
"-  c #241916",
";  c #24211C",
":  c #2A241E",
">  c #2D2217",
",  c #33231A",
"<  c #392419",
"1  c #362E1E",
"2  c #151B23",
"3  c #1C1D21",
"4  c #131B26",
"5  c #201F23",
"6  c #1D2124",
"7  c #1B212B",
"8  c #122339",
"9  c #222325",
"0  c #2D2924",
"q  c #25262A",
"w  c #26292C",
"e  c #2A2A2D",
"r  c #2A2420",
"t  c #342C22",
"y  c #382D21",
"u  c #332E2B",
"i  c #3C2826",
"p  c #3C342B",
"a  c #3D3324",
"s  c #2C2D33",
"d  c #272B3C",
"f  c #312F31",
"g  c #2E3134",
"h  c #2F323A",
"j  c #323236",
"k  c #31333A",
"l  c #36393D",
"z  c #3B3A3C",
"x  c #3B3838",
"c  c #432819",
"v  c #483A29",
"b  c #55392B",
"n  c #453D33",
"m  c #493E38",
"M  c #543F3B",
"N  c #532926",
"B  c #693333",
"V  c #56422D",
"C  c #554828",
"Z  c #4D4534",
"A  c #48423B",
"S  c #564B3A",
"D  c #594D3C",
"F  c #524837",
"G  c #5C503F",
"H  c #704E31",
"J  c #2E3342",
"K  c #353742",
"L  c #363A42",
"P  c #3B3C45",
"I  c #3E3F49",
"U  c #353A54",
"Y  c #413F43",
"T  c #3E4144",
"R  c #3F414B",
"E  c #3C4050",
"W  c #3C4A67",
"Q  c #43444C",
"!  c #47484D",
"~  c #4A4A4B",
"^  c #474547",
"/  c #574B43",
"(  c #5C5244",
")  c #454651",
"_  c #474953",
"`  c #484955",
"'  c #484A58",
"]  c #4E5154",
"[  c #4F505B",
"{  c #545255",
"}  c #52535A",
"|  c #595A5D",
" . c #625543",
".. c #695D47",
"X. c #665B4C",
"o. c #635C5A",
"O. c #6D624D",
"+. c #74654D",
"@. c #6E6451",
"#. c #736651",
"$. c #746A55",
"%. c #7A6C56",
"&. c #7E725B",
"*. c #7F7054",
"=. c #555661",
"-. c #5C5C64",
";. c #5D5E69",
":. c #605F65",
">. c #5E676D",
",. c #656363",
"<. c #64656C",
"1. c #69696C",
"2. c #66696B",
"3. c #7F6162",
"4. c #676771",
"5. c #6A6B73",
"6. c #646978",
"7. c #706F71",
"8. c #6B7277",
"9. c #6D777C",
"0. c #7B7A7B",
"q. c #75777A",
"w. c #866B34",
"e. c #84745B",
"r. c #877A5C",
"t. c #8C7A5D",
"y. c #877962",
"u. c #A57271",
"i. c #A2813D",
"p. c #8E8167",
"a. c #8F856E",
"s. c #94846B",
"d. c #9B8A6C",
"f. c #958467",
"g. c #9A8B72",
"h. c #978B71",
"j. c #9E9275",
"k. c #A18E74",
"l. c #A69576",
"z. c #A49478",
"x. c #AD9B7B",
"c. c #AB9976",
"v. c #B29E7A",
"b. c #B5A17D",
"n. c #BBA57F",
"m. c #BDAA7F",
"M. c #4D5E81",
"N. c #505D81",
"B. c #5A6889",
"V. c #747D82",
"C. c #7D7C84",
"Z. c #74798A",
"A. c #677594",
"S. c #626E89",
"D. c #788387",
"F. c #7B8793",
"G. c #7E8BA2",
"H. c #8B8A8C",
"J. c #858587",
"K. c #828A92",
"L. c #89959B",
"P. c #88989B",
"I. c #95969B",
"U. c #9A9B9B",
"Y. c #938587",
"T. c #BC8E88",
"R. c #B4A483",
"E. c #BBA581",
"W. c #BDAA82",
"Q. c #8D9CA3",
"!. c #8D96A6",
"~. c #989FB1",
"^. c #909DA5",
"/. c #99A3AA",
"(. c #A4A5A7",
"). c #B6B8B9",
"_. c #A2ACB8",
"`. c #C5AE86",
"'. c #C9B48B",
"]. c #D3BB8E",
"[. c #CEBB90",
"{. c #D5BE93",
"}. c #D9BE91",
"|. c #DDC496",
" X c #DDC599",
".X c #DEC89C",
"XX c #E3CA9B",
"oX c #E9CE9E",
"OX c #E0C69B",
"+X c #EDD29F",
"@X c #E6CFA2",
"#X c #EDD2A1",
"$X c #E7D0A1",
"%X c #F2D5A3",
"&X c #F5DAA5",
"*X c #F9DAA6",
"=X c #F5DAA9",
"-X c #F8DCA9",
";X c #CACBC9",
":X c #CDD1DA",
">X c #D1D2D7",
",X c #E4DEDC",
"<X c #DCE1E7",
"1X c #E2E3E6",
"2X c #F2EEEE",
/* pixels */
"                                                                                                                                ",
"                                                                                                                                ",
"                                                                                                                                ",
"                                                        2 $ # $ $ $ $ % # $ 3 9                                                 ",
"                                          2 $ # # $ X X . X o % f Y ` { { Q f 5 $ 3                                             ",
"                                  @ $ 2 3 9 e j x P ^ P L x g q 5 q f ^ -.5.7.:.z % 2                                           ",
"                              $ # * f ! | :.4.4.1.5.4.5.4.5.1.<.:.} P e w P } <.5.` 9 $ 2                                       ",
"                          2 $ 9 P ` { { ` ) ) Y Q Q ) _ ` ` ' [ [ =.-.-.[ I P Q } 4.-.e # 2                                     ",
"                      3 # o % e q 5 % % % 3 9 s f l Y ) ` ` ` _ ` ` ) ` [ [ ` Y ' [ :.:.s # # $ $ $ $ 3 4 6                     ",
"                  $ $ $ # o o X # 3 q f K Y Q ` ` ` ' ` ` ` ` ` ` ` ` ` ` ` ` ` ' ` Y =.;.' ) Q Q Y z h e q % # $               ",
"                $ @ @ o # o * s z Y ) ` ` ` ' ` ' ` ` ` ` ` ' _ ` ` ` ` ` ` ' Y ` ` ' ' [ =.=.;.-.:.<.4.5.1.:.! w @ $           ",
"            3 $ @ @ @ $ q l Q _ ` ` ` ` ` ` ` ` ` ` ` ` ` ` ` ` ` ` ` ` ' ' ' ` ` ' ' ' ' ' Y ' ' Y I ! [ =.<.8.5.l @ 2         ",
"        4 4 2 $ # 3 5 z ! ` ` ` ` ` ` ` ` ` ` ' ` ' ` ` ' ' _ _ ` ` ` ` ` ` ` ` ` ` ' ' ' Y [ ' ' Q K q q s k Q :.2.h # $       ",
"      8       $ # h Y ` ` ` ` ' ` ` ` ` ` ) Q Y P P L P ! _ ' _ ` ` ` ` ` ` ` ` ` ` ' [ ' [ Y ' ` ` ' Y g % X % q z ^ % $       ",
"            $ o j ) ` ` ` ` ` ' ' ` Y I K k k k h h h h L _ _ ' ` ` ` ` ` ` ` ` ` ` ` Y ' [ ' ' ` ` ' ' _ T 9 O O X % % # 2     ",
"          $ # f ) ` ` ` ` ' ` ) I P k f e q 9 5 % 3 3 s h R ' ' ` ` ` ` ` ` ` ` ` ` ` ` ' Y ' ' ` ` ` ' ' ` Q e O X # # o $     ",
"        2 X w ) ' ` ` ` ` ) Y k w 9 $ # # % 0 j A ; X q h l _ ' ` ' ' ` ` ` ` ` ` ` ` ` ` ` ` ` ` ` ` ` ` ' ' ) s X @ 2 $ $     ",
"        $ % I ' ` ` ` _ Y s 5 # @ 3 x ,.H.(.).;X>X,.O % g l Q ) I ) ` ` ` ` ` ' ` ` ` ` ` ` ` ` ` ` ` ` ) ' ) ' Q q @ 3         ",
"      2 # f _ _ ' ' I s 3 X X o . o z -.0.H.(.).;XU.; O w h T R K ) ` ` ` ` ` ) ) ' ` ` ` ) ` ` ` ` ` ) P K I ) ' I 3 $         ",
"      $ % P _ _ Y s 3 3 z 0.H.7.o.~ f * O O + : j z % O 9 g l l J P ) ' ` ` ` ` ` ` ` ` ' ' ` ' ` ` ` ' L h h K R ) k $ 3       ",
"    2 $ q ! ! j * X X u | 2.@.{ ~ ^ u % X X X X X O O X 3 g h h h K ) ` ' ` ` ` ` ` ` ` ` ` ` ' ` ` ` ` P h k k s I I 3 $       ",
"    2 X g Q w # O # % ; ; r 0 u p p n A / ( X.@.$.&.X.; $ e j g w J Y ` ' ) ` ` ` ` ` ` ` ` ` ) ' ) ` ) K h k h 9 w l 9 @ 2     ",
"    2 @ q 9 @ X ; $.y.s.h.a.y.@./ n v A / @.s.E.'.n.d.t O 6 k e 9 h I ` ` ` ` ` ` ` ' ` ` ` ` ` ' ` ` ) K k k k e 3 w 5 $ 3     ",
"    2 # # $ @ $ 0 R.|.x.@.p * ; a  .e.l.`.{. X#X$Xm.z.Z O 6 g 6 3 s L ` ` ` ` ` ` ` ' ) ` ` ` ` ` ` ` I k k k k s $ 3 3 @ 4     ",
"    2 # # $   $ 0 '.@XF ; Z e.b.{.OXoX+X%X*X*X*X%X'.x.( o % w # 3 g l _ ' ' _ _ ' _ ' ` ` Q ` ` ` ' ` P h h l h s % @ # O 2     ",
"    2 # 2     $ r R.%Xv.c.R.f.+.( Z Z Z ( d.XX&X=X}.b.@.o # % # $ g l E ' _ ` ` _ ' ) _ R k L ` ` ` Q K k h h k j 3 X # X 2     ",
"    7 4       $ + d.*X$Xe.1 s J U U ;.H.@.9  .|.&XOXb.&.* X O # % s x ) ` ` _ Q R ' ` ) K h k L ' ) K k K h k k g 6 X X O       ",
"              2 o $.=Xv.& { B.W B.A.;.~.1XH.* %.+XOXn.p.; X X # 3 g l ) ' ` R l l Q ) P h h h l R P k J k k h l g % X X #       ",
"              6 X S $Xt.% q.' 2 S._.M.B.:X,X^ 1 ].+XE.h.: + u # % s l ) ) I l h k Q P h h h h h l h h h h l h k s # # O #       ",
"                @ v OXt.+ C.U X 9 8.M.M.:X2X1.& `.+XE.z.a X./ X % g k P K k h h k L l h h k h h h h h k h l k k q O #   2       ",
"              6 X v XXx.& 1.Z.J h F.M.A.<X,XY y |.+X`.c.&.k.F X 9 h k h k h k k k k s s k h h k h k k h w w j g % #     4       ",
"              $ X ..#XOXZ 0 (.!.S.B.G.:X<X0.& e.+X&X|.b.x.z.p $ 9 j h k h k k k k h 9 s k h k h k h k s % % g q o $             ",
"              $ O &.&X=XE.t z 0.C.C.K.y.{ : +.OX-X*X&X`.v.f.; # e j k h h h l h h 5 w k h k h k h k s 3 # % q O $               ",
"              # X O.&X=X&X`.+.D S S / G +.c.+X*X*X&X=X].b.@.o # s h j h h k g g 3 3 k k k h k k h e 3 @ X # # $                 ",
"                X t '.=X&X&X%X%X%X+X+X%X&X&X&X&X*X%X&X].l.n O 9 j j h k k h w 3 3 s k k j k k s 9 $ @ o X X @                   ",
"                $ @ n x.$X=X*X*X*X*X&X*X*X&X&X&X*X&XOXn.r.; O w j j j j s 6 # $ s k k k j s w 3 $ $   # X $                     ",
"                  $ X ; D d.[.@X%X*X*X*X*X*X*X*X+X}.n.c.Z o + g j j e q $ # % s k j g s q $ # $       3 2                       ",
"                      $ $ # 0 Z ..t.d.v.n.n.n.c.k.f.s.#.; o q e q 3 # @ # $ q e q 9 3 $ @ $           2                         ",
"                            @ . . X o + & ; * * * 5 r * o X % $ o X o @ @ # $ # O O o o $                                       ",
"                                      9 # * o.M i - X X O % @ X 3 e % X # @ X # O a H C 1 $                                     ",
"                                      e $ ~ Y.M = + % l ` x o q 1.D.| w # 6 e % O a w.i.C #                                     ",
"                                      6 O x u O # $ ` V.8.q O } Q.P.D.] $ $ } e X ; u t %                                       ",
"                                      6 o - & X O T F.L.>.$ q D.^.P.D.8.g O e * X * m u $                                       ",
"                                      # - B N o 6 q.^.Q._ X l L.Q.Q.D.9.~ O X O % o 9 % #                                       ",
"                                    3 X M u.N o % 8.^.L.K X } /././.F.D.2.3 O x { o % % $                                       ",
"                                    2 # e.T.b o X e 9.K.s 2 I.<X<X<X)./.U.j O { z X % #                                         ",
"                                    @ 5 Y.T.N . f % 3 z 6 $ | H.L.I.0.2.] 9 O * o X X #                                         ",
"                                    3 = B B = $ 7.H.~ 9 # # % ; 9 % ; ; : + O O % o @ $                                         ",
"                                    # X o = o O r ,.U.C.3 % $.h.f.p.f.h.g.Z o % x * O 4                                         ",
"                                    O 6 h $ 9 ] g @ 9 e o * z.XX|.|.|.OX.XG O 0 X.q O $                                         ",
"                                  $ O q L $ Q L.F.5.] j r X / [.%X&X%X Xf.: @ g z ; X $                                         ",
"                                  $ @ @ $ @ 9 h l T T ^ e @ o p ..@. .a + o X o % # $                                           ",
"                                          @ X X ; ; % o o : , , > > > 1 1 o o X $                                               ",
"                                            @ o + ; & + o p V b V v b v 1 o o X                                                 ",
"                                            2 X & , < & X o & - & & & & & X $                                                   ",
"                                              X + < c , + + , c c c c < + O                                                     ",
"                                              @ # + & + o o & , < , , & O X                                                     ",
"                                                  . X X O O # X o o O X X                                                       ",
"                                                                                                                                ",
"                                                                                                                                ",
"                                                                                                                                ",
"                                                                                                                                ",
"                                                                                                                                ",
"                                                                                                                                "
};
