<svg width="24" height="25" viewBox="0 0 24 25" fill="none" xmlns="http://www.w3.org/2000/svg">
<g clip-path="url(#clip0_725_4638)">
<path fill-rule="evenodd" clip-rule="evenodd" d="M12 0.859131C5.3724 0.859131 0 6.23993 0 12.8795C0 18.1895 3.438 22.6955 8.2068 24.2843C8.8068 24.3947 9.0252 24.0239 9.0252 23.7047C9.0252 23.4203 9.0156 22.6631 9.0096 21.6611C5.6712 22.3871 4.9668 20.0495 4.9668 20.0495C4.422 18.6599 3.6348 18.2903 3.6348 18.2903C2.5452 17.5463 3.7176 17.5607 3.7176 17.5607C4.9212 17.6447 5.5548 18.7991 5.5548 18.7991C6.6252 20.6351 8.364 20.1047 9.0468 19.7975C9.1572 19.0211 9.4668 18.4919 9.81 18.1919C7.146 17.8883 4.344 16.8563 4.344 12.2507C4.344 10.9391 4.812 9.86513 5.5788 9.02513C5.4552 8.72153 5.0436 7.49873 5.6964 5.84513C5.6964 5.84513 6.7044 5.52113 8.9964 7.07633C9.97532 6.80935 10.9853 6.67336 12 6.67193C13.02 6.67673 14.046 6.80993 15.0048 7.07633C17.2956 5.52113 18.3012 5.84393 18.3012 5.84393C18.9564 7.49873 18.5436 8.72153 18.4212 9.02513C19.1892 9.86513 19.6548 10.9391 19.6548 12.2507C19.6548 16.8683 16.848 17.8847 14.1756 18.1823C14.6064 18.5531 14.9892 19.2863 14.9892 20.4083C14.9892 22.0139 14.9748 23.3111 14.9748 23.7047C14.9748 24.0263 15.1908 24.4007 15.8004 24.2831C18.19 23.4817 20.2672 21.9495 21.7386 19.9032C23.2099 17.8569 24.001 15.3999 24 12.8795C24 6.23993 18.6264 0.859131 12 0.859131Z" fill="#98A2B3"/>
</g>
<defs>
<clipPath id="clip0_725_4638">
<rect width="24" height="24" fill="white" transform="translate(0 0.859131)"/>
</clipPath>
</defs>
</svg>
