<svg width="25" height="25" viewBox="0 0 25 25" fill="none" xmlns="http://www.w3.org/2000/svg">
<g clip-path="url(#clip0_399_5310)">
<path d="M12.5 2.88506C15.7063 2.88506 16.0859 2.89912 17.3469 2.95537C18.5188 3.00693 19.1516 3.20381 19.5734 3.36787C20.1313 3.5835 20.5344 3.846 20.9516 4.26318C21.3734 4.68506 21.6313 5.0835 21.8469 5.64131C22.0109 6.06318 22.2078 6.70068 22.2594 7.86787C22.3156 9.1335 22.3297 9.51318 22.3297 12.7147C22.3297 15.921 22.3156 16.3007 22.2594 17.5616C22.2078 18.7335 22.0109 19.3663 21.8469 19.7882C21.6313 20.346 21.3687 20.7491 20.9516 21.1663C20.5297 21.5882 20.1313 21.846 19.5734 22.0616C19.1516 22.2257 18.5141 22.4226 17.3469 22.4741C16.0813 22.5304 15.7016 22.5444 12.5 22.5444C9.29375 22.5444 8.91406 22.5304 7.65313 22.4741C6.48125 22.4226 5.84844 22.2257 5.42656 22.0616C4.86875 21.846 4.46563 21.5835 4.04844 21.1663C3.62656 20.7444 3.36875 20.346 3.15313 19.7882C2.98906 19.3663 2.79219 18.7288 2.74063 17.5616C2.68438 16.296 2.67031 15.9163 2.67031 12.7147C2.67031 9.5085 2.68438 9.12881 2.74063 7.86787C2.79219 6.696 2.98906 6.06318 3.15313 5.64131C3.36875 5.0835 3.63125 4.68037 4.04844 4.26318C4.47031 3.84131 4.86875 3.5835 5.42656 3.36787C5.84844 3.20381 6.48594 3.00693 7.65313 2.95537C8.91406 2.89912 9.29375 2.88506 12.5 2.88506ZM12.5 0.724121C9.24219 0.724121 8.83438 0.738184 7.55469 0.794434C6.27969 0.850684 5.40313 1.05693 4.64375 1.35225C3.85156 1.66162 3.18125 2.06943 2.51563 2.73975C1.84531 3.40537 1.4375 4.07568 1.12813 4.86318C0.832812 5.62725 0.626563 6.49912 0.570313 7.77412C0.514063 9.0585 0.5 9.46631 0.5 12.7241C0.5 15.9819 0.514063 16.3897 0.570313 17.6694C0.626563 18.9444 0.832812 19.821 1.12813 20.5804C1.4375 21.3726 1.84531 22.0429 2.51563 22.7085C3.18125 23.3741 3.85156 23.7866 4.63906 24.0913C5.40313 24.3866 6.275 24.5929 7.55 24.6491C8.82969 24.7054 9.2375 24.7194 12.4953 24.7194C15.7531 24.7194 16.1609 24.7054 17.4406 24.6491C18.7156 24.5929 19.5922 24.3866 20.3516 24.0913C21.1391 23.7866 21.8094 23.3741 22.475 22.7085C23.1406 22.0429 23.5531 21.3726 23.8578 20.5851C24.1531 19.821 24.3594 18.9491 24.4156 17.6741C24.4719 16.3944 24.4859 15.9866 24.4859 12.7288C24.4859 9.471 24.4719 9.06318 24.4156 7.7835C24.3594 6.5085 24.1531 5.63193 23.8578 4.87256C23.5625 4.07568 23.1547 3.40537 22.4844 2.73975C21.8188 2.07412 21.1484 1.66162 20.3609 1.35693C19.5969 1.06162 18.725 0.855371 17.45 0.799121C16.1656 0.738184 15.7578 0.724121 12.5 0.724121Z" fill="#677389"/>
<path d="M12.5 6.56006C9.09688 6.56006 6.33594 9.321 6.33594 12.7241C6.33594 16.1272 9.09688 18.8882 12.5 18.8882C15.9031 18.8882 18.6641 16.1272 18.6641 12.7241C18.6641 9.321 15.9031 6.56006 12.5 6.56006ZM12.5 16.7226C10.2922 16.7226 8.50156 14.9319 8.50156 12.7241C8.50156 10.5163 10.2922 8.72568 12.5 8.72568C14.7078 8.72568 16.4984 10.5163 16.4984 12.7241C16.4984 14.9319 14.7078 16.7226 12.5 16.7226Z" fill="#677389"/>
<path d="M20.3469 6.31602C20.3469 7.11289 19.7 7.75508 18.9078 7.75508C18.1109 7.75508 17.4688 7.10821 17.4688 6.31602C17.4688 5.51914 18.1156 4.87695 18.9078 4.87695C19.7 4.87695 20.3469 5.52383 20.3469 6.31602Z" fill="#677389"/>
</g>
<defs>
<clipPath id="clip0_399_5310">
<rect width="24" height="24" fill="white" transform="translate(0.5 0.724121)"/>
</clipPath>
</defs>
</svg>
