<svg width="25" height="25" viewBox="0 0 25 25" fill="none" xmlns="http://www.w3.org/2000/svg">
<g clip-path="url(#clip0_399_5313)">
<path d="M22.7234 0.724121H2.27187C1.29219 0.724121 0.5 1.49756 0.5 2.45381V22.9897C0.5 23.946 1.29219 24.7241 2.27187 24.7241H22.7234C23.7031 24.7241 24.5 23.946 24.5 22.9944V2.45381C24.5 1.49756 23.7031 0.724121 22.7234 0.724121ZM7.62031 21.1757H4.05781V9.71943H7.62031V21.1757ZM5.83906 8.1585C4.69531 8.1585 3.77188 7.23506 3.77188 6.096C3.77188 4.95693 4.69531 4.0335 5.83906 4.0335C6.97813 4.0335 7.90156 4.95693 7.90156 6.096C7.90156 7.23037 6.97813 8.1585 5.83906 8.1585ZM20.9516 21.1757H17.3937V15.6069C17.3937 14.2804 17.3703 12.5694 15.5422 12.5694C13.6906 12.5694 13.4094 14.0179 13.4094 15.5132V21.1757H9.85625V9.71943H13.2687V11.2851H13.3156C13.7891 10.3851 14.9516 9.4335 16.6813 9.4335C20.2859 9.4335 20.9516 11.8054 20.9516 14.8897V21.1757Z" fill="#677389"/>
</g>
<defs>
<clipPath id="clip0_399_5313">
<rect width="24" height="24" fill="white" transform="translate(0.5 0.724121)"/>
</clipPath>
</defs>
</svg>
