<svg width="25" height="25" viewBox="0 0 25 25" fill="none" xmlns="http://www.w3.org/2000/svg">
<g clip-path="url(#clip0_399_5311)">
<path d="M8.05016 22.4743C17.1045 22.4743 22.0583 14.9711 22.0583 8.46623C22.0583 8.25529 22.0536 8.03966 22.0442 7.82873C23.0079 7.13183 23.8395 6.26862 24.5 5.27966C23.6025 5.67897 22.6496 5.93975 21.6739 6.0531C22.7013 5.43727 23.4705 4.46984 23.8391 3.33013C22.8726 3.90292 21.8156 4.30698 20.7134 4.52498C19.9708 3.73593 18.989 3.21348 17.9197 3.03842C16.8504 2.86335 15.7532 3.04542 14.7977 3.55646C13.8423 4.06751 13.0818 4.87907 12.6338 5.86568C12.1859 6.85228 12.0754 7.95898 12.3195 9.01466C10.3625 8.91646 8.44794 8.40807 6.69998 7.52246C4.95203 6.63686 3.40969 5.3938 2.17297 3.87388C1.5444 4.95761 1.35206 6.24001 1.63503 7.46046C1.918 8.6809 2.65506 9.74781 3.69641 10.4444C2.91463 10.4195 2.14998 10.209 1.46563 9.83029V9.89123C1.46492 11.0285 1.8581 12.131 2.57831 13.0111C3.29852 13.8913 4.30132 14.4949 5.41625 14.7194C4.69206 14.9175 3.93198 14.9464 3.19484 14.8037C3.50945 15.7818 4.12157 16.6373 4.94577 17.2507C5.76997 17.8641 6.76512 18.205 7.79234 18.2256C6.04842 19.5955 3.89417 20.3385 1.67656 20.335C1.28329 20.3344 0.890399 20.3103 0.5 20.2628C2.75286 21.7081 5.37353 22.4757 8.05016 22.4743Z" fill="#677389"/>
</g>
<defs>
<clipPath id="clip0_399_5311">
<rect width="24" height="24" fill="white" transform="translate(0.5 0.724121)"/>
</clipPath>
</defs>
</svg>
